<svg width="186" height="91" viewBox="0 0 186 91" fill="none" xmlns="http://www.w3.org/2000/svg">
<g clip-path="url(#clip0_91_378)">
<path d="M0 82.1186C0 82.3031 0.209528 82.4503 0.471927 82.4503H185.528C185.789 82.4503 186 82.3031 186 82.1186C186 81.9341 185.79 81.7869 185.528 81.7869H0.471927C0.211486 81.7869 0 81.9341 0 82.1186Z" fill="#2F2E43"/>
<path d="M154.539 82.5877H31.8521V3.39749C31.8521 1.52504 33.3716 0 35.2417 0H151.15C153.018 0 154.539 1.52308 154.539 3.39749V82.5877Z" fill="#2F2E41"/>
<path d="M164.752 91H21.3347C20.8393 91 20.4339 90.6919 20.2988 90.213C20.1656 89.736 20.3517 89.2591 20.7746 89.002L31.954 82.1658H154.581L154.616 82.1874L165.331 89.0118C165.744 89.2748 165.925 89.7498 165.787 90.2228C165.65 90.6938 165.245 91 164.755 91H164.752Z" fill="#DFDFDF"/>
<path d="M151.181 5.04816H35.0696V77.4003H151.181V5.04816Z" fill="white"/>
<path d="M155.658 86.6545H31.1531L37.3077 81.6495H149.783L155.658 86.6545Z" fill="#2F2E41"/>
<path d="M122.644 90.0187H63.6084L65.8466 86.6545H120.406L122.644 90.0187Z" fill="#2F2E41"/>
<path d="M127.925 33.6589H121.775C121.24 33.6589 120.805 33.2231 120.805 32.6873C120.805 32.1515 121.24 31.7158 121.775 31.7158H127.925C128.46 31.7158 128.895 32.1515 128.895 32.6873C128.895 33.2231 128.46 33.6589 127.925 33.6589Z" fill="#DFDFDF"/>
<path d="M134.998 33.6589H132.128C131.593 33.6589 131.158 33.2231 131.158 32.6873C131.158 32.1515 131.593 31.7158 132.128 31.7158H134.998C135.533 31.7158 135.968 32.1515 135.968 32.6873C135.968 33.2231 135.533 33.6589 134.998 33.6589Z" fill="#DFDFDF"/>
<path d="M66.3441 34.4008H47.6236C46.668 34.4008 45.8906 33.6216 45.8906 32.6638C45.8906 31.706 46.668 30.9268 47.6236 30.9268H66.3441C67.2997 30.9268 68.0771 31.706 68.0771 32.6638C68.0771 33.6216 67.2997 34.4008 66.3441 34.4008Z" fill="#2E2E2E"/>
<path d="M56.1946 39.0348H47.1732C46.5916 39.0348 46.1157 38.5598 46.1157 37.9749C46.1157 37.39 46.5896 36.915 47.1732 36.915H56.1946C56.7762 36.915 57.252 37.39 57.252 37.9749C57.252 38.5598 56.7781 39.0348 56.1946 39.0348Z" fill="#DFDFDF"/>
<path d="M105.929 43.2173H46.9461C46.3645 43.2173 45.8887 42.7424 45.8887 42.1575C45.8887 41.5726 46.3626 41.0976 46.9461 41.0976H105.929C106.511 41.0976 106.987 41.5726 106.987 42.1575C106.987 42.7424 106.513 43.2173 105.929 43.2173Z" fill="#DFDFDF"/>
<path d="M100.855 46.0437H46.9461C46.3645 46.0437 45.8887 45.5687 45.8887 44.9838C45.8887 44.3989 46.3626 43.924 46.9461 43.924H100.854C101.435 43.924 101.911 44.3989 101.911 44.9838C101.911 45.5687 101.437 46.0437 100.854 46.0437H100.855Z" fill="#DFDFDF"/>
<path d="M164.242 29.8688L161.36 30.8188V26.6578H163.976L164.242 29.8688Z" fill="#F2A7AA"/>
<path d="M161.716 27.8099C163.303 27.8099 164.589 26.5208 164.589 24.9306C164.589 23.3404 163.303 22.0513 161.716 22.0513C160.13 22.0513 158.844 23.3404 158.844 24.9306C158.844 26.5208 160.13 27.8099 161.716 27.8099Z" fill="#F2A7AA"/>
<path d="M162.505 24.646C162.024 24.6322 161.708 24.1435 161.522 23.6999C161.336 23.2544 161.142 22.7441 160.698 22.5596C160.334 22.4085 159.689 23.4232 159.402 23.1543C159.102 22.8736 159.394 21.4251 159.713 21.1661C160.032 20.907 160.467 20.8559 160.878 20.8363C161.879 20.7892 162.887 20.8716 163.868 21.0758C164.475 21.2033 165.1 21.3937 165.539 21.8334C166.093 22.3908 166.236 23.2328 166.275 24.0199C166.316 24.8246 166.269 25.6686 165.879 26.3712C165.49 27.0758 164.671 27.596 163.888 27.4154C163.81 26.9875 163.888 26.5498 163.919 26.1161C163.949 25.6823 163.919 25.2152 163.655 24.8697C163.39 24.5243 162.826 24.3889 162.519 24.695" fill="#36344E"/>
<path d="M166.04 25.6431C166.328 25.4311 166.671 25.2564 167.025 25.2996C167.407 25.3467 167.73 25.6627 167.828 26.0356C167.926 26.4085 167.816 26.8207 167.579 27.1249C167.342 27.4291 166.992 27.6313 166.62 27.7334C166.404 27.7922 166.169 27.8158 165.964 27.7275C165.662 27.5979 165.5 27.2093 165.617 26.9031" fill="#36344E"/>
<path d="M163.291 76.1539H160.59V79.993H163.291V76.1539Z" fill="#F2A7AA"/>
<path d="M157.96 82.3188C157.676 82.3188 157.424 82.311 157.234 82.2933C156.517 82.2266 155.832 81.6966 155.487 81.3865C155.332 81.2472 155.284 81.0254 155.364 80.833C155.421 80.6957 155.536 80.5936 155.679 80.5524L157.575 80.0087L160.643 77.9321L160.676 77.993C160.69 78.0165 160.99 78.5602 161.092 78.9272C161.131 79.0666 161.119 79.1843 161.062 79.2746C161.021 79.3374 160.966 79.3728 160.919 79.3944C160.974 79.4532 161.148 79.571 161.685 79.6574C162.466 79.783 162.633 78.9685 162.639 78.9351L162.644 78.9076L162.668 78.8919C163.04 78.6505 163.269 78.5425 163.349 78.5661C163.398 78.5818 163.481 78.6053 163.704 80.8213C163.725 80.89 163.882 81.4003 163.776 81.887C163.661 82.417 161.35 82.2344 160.888 82.1932C160.874 82.1932 159.145 82.3188 157.958 82.3188H157.96Z" fill="#36344E"/>
<path d="M170.979 73.1347L168.688 74.567L170.714 77.8245L173.006 76.3923L170.979 73.1347Z" fill="#F2A7AA"/>
<path d="M167.938 81.7929C167.62 81.7929 167.329 81.7556 167.121 81.7183C166.917 81.6829 166.757 81.52 166.724 81.3139C166.7 81.1667 166.743 81.0195 166.843 80.9077L168.165 79.4415L169.673 76.0519L169.733 76.0852C169.757 76.097 170.299 76.3993 170.579 76.6583C170.685 76.7565 170.738 76.8605 170.736 76.9685C170.736 77.043 170.707 77.1039 170.679 77.1451C170.757 77.1647 170.967 77.1726 171.468 76.9606C172.199 76.6525 171.909 75.8733 171.897 75.8399L171.887 75.8144L171.899 75.7889C172.089 75.3865 172.224 75.1726 172.304 75.151C172.353 75.1372 172.438 75.1156 173.795 76.8762C173.849 76.9233 174.251 77.2727 174.419 77.7437C174.601 78.254 172.543 79.3257 172.13 79.5357C172.116 79.5455 169.964 81.1137 169.081 81.5593C168.731 81.7359 168.316 81.7909 167.938 81.7909V81.7929Z" fill="#36344E"/>
<path d="M165.28 44.0397H157.72L157.034 51.0899L160.036 77.1372H163.896L162.353 62.0929L168.613 75.675L172.044 73.2687L167.154 60.5895C167.154 60.5895 168.901 49.5432 167.528 46.7915C166.156 44.0397 165.28 44.0397 165.28 44.0397Z" fill="#36344E"/>
<path d="M169.04 44.4696H157.032L160.635 28.911H165.866L169.04 44.4696Z" fill="#2E2E2E"/>
<path d="M154.05 28.6028C153.858 27.6568 154.209 26.7912 154.833 26.6715C155.458 26.5518 156.118 27.2211 156.31 28.1691C156.392 28.5459 156.378 28.9365 156.273 29.3094L157.032 33.3311L155.07 33.6412L154.53 29.645C154.287 29.3408 154.123 28.9836 154.05 28.6028Z" fill="#F2A7AA"/>
<path d="M165.739 28.911H161.125L158.015 35.1466L156.842 30.4753L154.265 30.7501C154.265 30.7501 154.874 39.8787 157.541 39.5706C160.207 39.2624 166.424 31.0366 165.74 28.913L165.739 28.911Z" fill="#2E2E2E"/>
<path d="M170.893 52.6227C171.084 53.5688 170.734 54.4343 170.109 54.5541C169.485 54.6738 168.825 54.0045 168.633 53.0565C168.55 52.6797 168.564 52.2891 168.67 51.9162L167.91 47.8945L169.872 47.5844L170.413 51.5805C170.656 51.8847 170.82 52.242 170.893 52.6227Z" fill="#F2A7AA"/>
<path d="M163.109 28.911C163.109 28.911 165.731 28.7991 165.866 28.911C166.581 29.4978 170.779 50.6306 170.779 50.6306H168.12L163.107 28.911H163.109Z" fill="#2E2E2E"/>
</g>
<defs>
<clipPath id="clip0_91_378">
<rect width="186" height="91" fill="white"/>
</clipPath>
</defs>
</svg>
