<svg width="367" height="154" viewBox="0 0 367 154" fill="none" xmlns="http://www.w3.org/2000/svg">
<path opacity="0.3" d="M185.05 96.5659C185.282 96.7147 185.35 97.0239 185.201 97.2565C185.053 97.4891 184.743 97.5571 184.511 97.4084L185.05 96.5659ZM175.44 97.589C175.229 97.767 174.914 97.7401 174.736 97.5289C174.558 97.3178 174.584 97.0024 174.796 96.8244L175.44 97.589ZM183.91 95.0599C183.833 94.7948 183.985 94.5172 184.25 94.4399C184.515 94.3626 184.793 94.5148 184.87 94.7799L183.91 95.0599ZM184.911 96.7059L185.391 96.5659L185.391 96.5664L184.911 96.7059ZM184.629 97.2921L184.431 96.8329L184.431 96.8327L184.629 97.2921ZM183.06 98.5119C182.807 98.6211 182.513 98.5041 182.403 98.2505C182.294 97.9968 182.411 97.7027 182.665 97.5935L183.06 98.5119ZM184.78 96.9871C184.511 97.4084 184.511 97.4084 184.511 97.4085C184.511 97.4085 184.511 97.4086 184.511 97.4086C184.511 97.4086 184.511 97.4087 184.511 97.4087C184.511 97.4086 184.511 97.4085 184.511 97.4083C184.51 97.4079 184.509 97.4071 184.507 97.406C184.503 97.4036 184.497 97.3998 184.489 97.3945C184.472 97.3841 184.445 97.368 184.41 97.3473C184.339 97.3059 184.234 97.2458 184.098 97.1741C183.827 97.0305 183.437 96.8415 182.968 96.662C182.021 96.2998 180.792 95.9923 179.573 96.1377L179.455 95.1447C180.901 94.9722 182.305 95.3377 183.325 95.728C183.839 95.9247 184.266 96.1317 184.566 96.2901C184.716 96.3695 184.834 96.4369 184.917 96.4852C184.958 96.5094 184.99 96.5288 185.012 96.5425C185.023 96.5494 185.032 96.5548 185.038 96.5588C185.041 96.5607 185.044 96.5623 185.046 96.5635C185.047 96.5641 185.048 96.5646 185.048 96.565C185.048 96.5652 185.049 96.5654 185.049 96.5655C185.049 96.5656 185.049 96.5657 185.049 96.5657C185.049 96.5658 185.05 96.5659 184.78 96.9871ZM179.573 96.1377C177.008 96.4438 175.707 97.3643 175.44 97.589L174.796 96.8244C175.209 96.4757 176.693 95.4743 179.455 95.1447L179.573 96.1377ZM184.87 94.7799L185.391 96.5659L184.431 96.846L183.91 95.0599L184.87 94.7799ZM185.391 96.5664C185.532 97.051 185.282 97.5555 184.826 97.7515L184.431 96.8327C184.433 96.8321 184.433 96.8318 184.432 96.8322C184.432 96.8324 184.432 96.8327 184.432 96.8334C184.431 96.8341 184.431 96.8356 184.43 96.838C184.43 96.8406 184.43 96.8434 184.431 96.8455L185.391 96.5664ZM184.826 97.7513L183.06 98.5119L182.665 97.5935L184.431 96.8329L184.826 97.7513Z" fill="#101828"/>
<path opacity="0.5" d="M252.472 31V22.06H255.472C256.04 22.06 256.54 22.172 256.972 22.396C257.404 22.62 257.74 22.936 257.98 23.344C258.228 23.752 258.352 24.224 258.352 24.76C258.352 25.4 258.176 25.948 257.824 26.404C257.48 26.852 257.016 27.16 256.432 27.328L258.544 31H257.62L255.4 27.088L256.048 27.46H253.252V31H252.472ZM253.252 26.74H255.496C255.904 26.74 256.264 26.66 256.576 26.5C256.888 26.332 257.132 26.1 257.308 25.804C257.484 25.5 257.572 25.148 257.572 24.748C257.572 24.348 257.484 24.004 257.308 23.716C257.132 23.42 256.888 23.192 256.576 23.032C256.264 22.864 255.904 22.78 255.496 22.78H253.252V26.74ZM262.545 31.144C261.945 31.144 261.405 31 260.925 30.712C260.445 30.416 260.065 30.016 259.785 29.512C259.505 29 259.365 28.428 259.365 27.796C259.365 27.164 259.501 26.6 259.773 26.104C260.045 25.6 260.413 25.204 260.877 24.916C261.341 24.628 261.861 24.484 262.437 24.484C262.877 24.484 263.273 24.564 263.625 24.724C263.985 24.884 264.293 25.108 264.549 25.396C264.813 25.676 265.013 26 265.149 26.368C265.293 26.728 265.365 27.108 265.365 27.508C265.365 27.588 265.361 27.672 265.353 27.76C265.345 27.848 265.333 27.94 265.317 28.036H259.785V27.376H264.909L264.585 27.628C264.633 27.164 264.565 26.748 264.381 26.38C264.197 26.004 263.933 25.708 263.589 25.492C263.253 25.268 262.869 25.156 262.437 25.156C262.005 25.156 261.609 25.272 261.249 25.504C260.889 25.728 260.605 26.04 260.397 26.44C260.189 26.832 260.093 27.288 260.109 27.808C260.093 28.328 260.193 28.788 260.409 29.188C260.625 29.588 260.921 29.904 261.297 30.136C261.673 30.36 262.089 30.472 262.545 30.472C263.009 30.472 263.413 30.364 263.757 30.148C264.101 29.924 264.381 29.628 264.597 29.26L265.209 29.584C265.065 29.88 264.861 30.148 264.597 30.388C264.333 30.62 264.025 30.804 263.673 30.94C263.329 31.076 262.953 31.144 262.545 31.144ZM268.789 31.144C268.389 31.144 268.033 31.068 267.721 30.916C267.409 30.764 267.161 30.552 266.977 30.28C266.793 30.008 266.701 29.696 266.701 29.344C266.701 29.032 266.769 28.74 266.905 28.468C267.041 28.196 267.261 27.964 267.565 27.772C267.869 27.572 268.265 27.432 268.753 27.352L271.333 26.92V27.592L268.945 27.988C268.401 28.076 268.017 28.24 267.793 28.48C267.569 28.72 267.457 29 267.457 29.32C267.457 29.664 267.585 29.944 267.841 30.16C268.105 30.376 268.437 30.484 268.837 30.484C269.301 30.484 269.705 30.38 270.049 30.172C270.393 29.956 270.661 29.676 270.853 29.332C271.045 28.98 271.141 28.596 271.141 28.18V26.596C271.141 26.172 270.989 25.828 270.685 25.564C270.381 25.3 269.985 25.168 269.497 25.168C269.097 25.168 268.737 25.268 268.417 25.468C268.097 25.668 267.853 25.928 267.685 26.248L267.037 25.9C267.157 25.644 267.341 25.408 267.589 25.192C267.837 24.976 268.125 24.804 268.453 24.676C268.781 24.548 269.129 24.484 269.497 24.484C269.961 24.484 270.369 24.576 270.721 24.76C271.081 24.936 271.361 25.184 271.561 25.504C271.761 25.816 271.861 26.18 271.861 26.596V31H271.141V29.668L271.225 29.728C271.121 29.984 270.949 30.22 270.709 30.436C270.469 30.644 270.185 30.816 269.857 30.952C269.537 31.08 269.181 31.144 268.789 31.144ZM276.748 31.144C276.14 31.144 275.596 31 275.116 30.712C274.644 30.416 274.268 30.016 273.988 29.512C273.716 29.008 273.58 28.44 273.58 27.808C273.58 27.168 273.716 26.6 273.988 26.104C274.268 25.6 274.644 25.204 275.116 24.916C275.596 24.628 276.14 24.484 276.748 24.484C277.148 24.484 277.516 24.552 277.852 24.688C278.196 24.824 278.5 25.008 278.764 25.24C279.028 25.472 279.228 25.74 279.364 26.044L278.728 26.38C278.536 26.012 278.268 25.72 277.924 25.504C277.58 25.288 277.188 25.18 276.748 25.18C276.292 25.18 275.88 25.292 275.512 25.516C275.152 25.74 274.864 26.052 274.648 26.452C274.432 26.844 274.324 27.296 274.324 27.808C274.324 28.32 274.432 28.776 274.648 29.176C274.864 29.568 275.152 29.876 275.512 30.1C275.88 30.324 276.292 30.436 276.748 30.436C277.188 30.436 277.58 30.328 277.924 30.112C278.268 29.896 278.536 29.6 278.728 29.224L279.364 29.572C279.228 29.868 279.028 30.136 278.764 30.376C278.5 30.608 278.196 30.796 277.852 30.94C277.516 31.076 277.148 31.144 276.748 31.144ZM283.402 31.072C282.874 31.072 282.466 30.924 282.178 30.628C281.89 30.324 281.746 29.884 281.746 29.308V25.312H280.546V24.628H281.002C281.242 24.628 281.426 24.556 281.554 24.412C281.682 24.268 281.746 24.072 281.746 23.824V23.14H282.466V24.628H283.858V25.312H282.466V29.308C282.466 29.484 282.49 29.656 282.538 29.824C282.594 29.992 282.698 30.128 282.85 30.232C283.002 30.336 283.222 30.388 283.51 30.388C283.574 30.388 283.65 30.384 283.738 30.376C283.834 30.368 283.91 30.36 283.966 30.352V31C283.878 31.024 283.778 31.04 283.666 31.048C283.554 31.064 283.466 31.072 283.402 31.072ZM289.496 31.144C289.096 31.144 288.74 31.068 288.428 30.916C288.116 30.764 287.868 30.552 287.684 30.28C287.5 30.008 287.408 29.696 287.408 29.344C287.408 29.032 287.476 28.74 287.612 28.468C287.748 28.196 287.968 27.964 288.272 27.772C288.576 27.572 288.972 27.432 289.46 27.352L292.04 26.92V27.592L289.652 27.988C289.108 28.076 288.724 28.24 288.5 28.48C288.276 28.72 288.164 29 288.164 29.32C288.164 29.664 288.292 29.944 288.548 30.16C288.812 30.376 289.144 30.484 289.544 30.484C290.008 30.484 290.412 30.38 290.756 30.172C291.1 29.956 291.368 29.676 291.56 29.332C291.752 28.98 291.848 28.596 291.848 28.18V26.596C291.848 26.172 291.696 25.828 291.392 25.564C291.088 25.3 290.692 25.168 290.204 25.168C289.804 25.168 289.444 25.268 289.124 25.468C288.804 25.668 288.56 25.928 288.392 26.248L287.744 25.9C287.864 25.644 288.048 25.408 288.296 25.192C288.544 24.976 288.832 24.804 289.16 24.676C289.488 24.548 289.836 24.484 290.204 24.484C290.668 24.484 291.076 24.576 291.428 24.76C291.788 24.936 292.068 25.184 292.268 25.504C292.468 25.816 292.568 26.18 292.568 26.596V31H291.848V29.668L291.932 29.728C291.828 29.984 291.656 30.22 291.416 30.436C291.176 30.644 290.892 30.816 290.564 30.952C290.244 31.08 289.888 31.144 289.496 31.144ZM294.551 33.4V24.628H295.271V26.236L295.151 26.008C295.391 25.544 295.735 25.176 296.183 24.904C296.639 24.624 297.159 24.484 297.743 24.484C298.343 24.484 298.879 24.628 299.351 24.916C299.823 25.204 300.195 25.6 300.467 26.104C300.739 26.608 300.875 27.18 300.875 27.82C300.875 28.444 300.739 29.008 300.467 29.512C300.195 30.016 299.823 30.416 299.351 30.712C298.879 31 298.343 31.144 297.743 31.144C297.159 31.144 296.635 31.004 296.171 30.724C295.715 30.436 295.375 30.044 295.151 29.548L295.271 29.38V33.4H294.551ZM297.719 30.424C298.175 30.424 298.583 30.312 298.943 30.088C299.303 29.856 299.587 29.544 299.795 29.152C300.003 28.752 300.107 28.304 300.107 27.808C300.107 27.312 300.003 26.868 299.795 26.476C299.587 26.084 299.303 25.776 298.943 25.552C298.583 25.32 298.175 25.204 297.719 25.204C297.263 25.204 296.851 25.32 296.483 25.552C296.115 25.776 295.823 26.084 295.607 26.476C295.391 26.868 295.283 27.312 295.283 27.808C295.283 28.304 295.391 28.752 295.607 29.152C295.823 29.544 296.111 29.856 296.471 30.088C296.839 30.312 297.255 30.424 297.719 30.424ZM302.601 33.4V24.628H303.321V26.236L303.201 26.008C303.441 25.544 303.785 25.176 304.233 24.904C304.689 24.624 305.209 24.484 305.793 24.484C306.393 24.484 306.929 24.628 307.401 24.916C307.873 25.204 308.245 25.6 308.517 26.104C308.789 26.608 308.925 27.18 308.925 27.82C308.925 28.444 308.789 29.008 308.517 29.512C308.245 30.016 307.873 30.416 307.401 30.712C306.929 31 306.393 31.144 305.793 31.144C305.209 31.144 304.685 31.004 304.221 30.724C303.765 30.436 303.425 30.044 303.201 29.548L303.321 29.38V33.4H302.601ZM305.769 30.424C306.225 30.424 306.633 30.312 306.993 30.088C307.353 29.856 307.637 29.544 307.845 29.152C308.053 28.752 308.157 28.304 308.157 27.808C308.157 27.312 308.053 26.868 307.845 26.476C307.637 26.084 307.353 25.776 306.993 25.552C306.633 25.32 306.225 25.204 305.769 25.204C305.313 25.204 304.901 25.32 304.533 25.552C304.165 25.776 303.873 26.084 303.657 26.476C303.441 26.868 303.333 27.312 303.333 27.808C303.333 28.304 303.441 28.752 303.657 29.152C303.873 29.544 304.161 29.856 304.521 30.088C304.889 30.312 305.305 30.424 305.769 30.424Z" fill="black"/>
<rect x="194.5" y="39.5" width="172" height="112" rx="1.5" stroke="#E1E1E1"/>
<path d="M234.233 54.2703H203.841C203.542 54.2703 203.296 53.5859 203.296 52.7432C203.296 51.9005 203.541 51.2162 203.841 51.2162H234.233C234.533 51.2162 234.778 51.9005 234.778 52.7432C234.778 53.5859 234.534 54.2703 234.233 54.2703Z" fill="#DFDFDF"/>
<path d="M353.863 54.2703H323.471C323.171 54.2703 322.926 53.5859 322.926 52.7432C322.926 51.9005 323.17 51.2162 323.471 51.2162H353.863C354.162 51.2162 354.408 51.9005 354.408 52.7432C354.408 53.5859 354.163 54.2703 353.863 54.2703Z" fill="#DFDFDF"/>
<rect x="231.78" y="60.5284" width="97.2926" height="36.3486" stroke="black" stroke-width="0.3"/>
<rect x="203.446" y="103.15" width="46.9222" height="36.3486" stroke="black" stroke-width="0.3"/>
<rect x="256.15" y="103.15" width="46.9222" height="36.3486" stroke="black" stroke-width="0.3"/>
<rect x="308.854" y="103.15" width="46.9222" height="36.3486" stroke="black" stroke-width="0.3"/>
<rect x="215.889" y="127.432" width="22.037" height="6.10811" fill="#2E2E2E"/>
<rect x="268.593" y="127.432" width="22.037" height="6.10811" fill="#2E2E2E"/>
<rect x="321.296" y="127.432" width="22.037" height="6.10811" fill="#2E2E2E"/>
<rect x="244" y="67" width="70" height="6" rx="2" fill="#2E2E2E"/>
<rect x="244" y="74" width="70" height="6" rx="2" fill="#2E2E2E"/>
<rect x="253" y="81" width="52" height="6" rx="2" fill="#2E2E2E"/>
<rect x="207" y="107.919" width="38" height="6" rx="2" fill="#9C9C9C"/>
<rect x="259.704" y="107.919" width="38" height="6" rx="2" fill="#9C9C9C"/>
<rect x="312.407" y="107.919" width="38" height="6" rx="2" fill="#9C9C9C"/>
<rect x="207" y="114.919" width="38" height="6" rx="2" fill="#9C9C9C"/>
<rect x="259.704" y="114.919" width="38" height="6" rx="2" fill="#9C9C9C"/>
<rect x="312.407" y="114.919" width="38" height="6" rx="2" fill="#9C9C9C"/>
<path opacity="0.5" d="M64.1944 31V22.06H64.8544L70.2664 29.824H70.0144V22.06H70.7944V31H70.1344L64.6984 23.188H64.9744V31H64.1944ZM74.7341 31.144C74.3341 31.144 73.9781 31.068 73.6661 30.916C73.3541 30.764 73.1061 30.552 72.9221 30.28C72.7381 30.008 72.6461 29.696 72.6461 29.344C72.6461 29.032 72.7141 28.74 72.8501 28.468C72.9861 28.196 73.2061 27.964 73.5101 27.772C73.8141 27.572 74.2101 27.432 74.6981 27.352L77.2781 26.92V27.592L74.8901 27.988C74.3461 28.076 73.9621 28.24 73.7381 28.48C73.5141 28.72 73.4021 29 73.4021 29.32C73.4021 29.664 73.5301 29.944 73.7861 30.16C74.0501 30.376 74.3821 30.484 74.7821 30.484C75.2461 30.484 75.6501 30.38 75.9941 30.172C76.3381 29.956 76.6061 29.676 76.7981 29.332C76.9901 28.98 77.0861 28.596 77.0861 28.18V26.596C77.0861 26.172 76.9341 25.828 76.6301 25.564C76.3261 25.3 75.9301 25.168 75.4421 25.168C75.0421 25.168 74.6821 25.268 74.3621 25.468C74.0421 25.668 73.7981 25.928 73.6301 26.248L72.9821 25.9C73.1021 25.644 73.2861 25.408 73.5341 25.192C73.7821 24.976 74.0701 24.804 74.3981 24.676C74.7261 24.548 75.0741 24.484 75.4421 24.484C75.9061 24.484 76.3141 24.576 76.6661 24.76C77.0261 24.936 77.3061 25.184 77.5061 25.504C77.7061 25.816 77.8061 26.18 77.8061 26.596V31H77.0861V29.668L77.1701 29.728C77.0661 29.984 76.8941 30.22 76.6541 30.436C76.4141 30.644 76.1301 30.816 75.8021 30.952C75.4821 31.08 75.1261 31.144 74.7341 31.144ZM79.789 33.4V24.628H80.509V26.236L80.389 26.008C80.629 25.544 80.973 25.176 81.421 24.904C81.877 24.624 82.397 24.484 82.981 24.484C83.581 24.484 84.117 24.628 84.589 24.916C85.061 25.204 85.433 25.6 85.705 26.104C85.977 26.608 86.113 27.18 86.113 27.82C86.113 28.444 85.977 29.008 85.705 29.512C85.433 30.016 85.061 30.416 84.589 30.712C84.117 31 83.581 31.144 82.981 31.144C82.397 31.144 81.873 31.004 81.409 30.724C80.953 30.436 80.613 30.044 80.389 29.548L80.509 29.38V33.4H79.789ZM82.957 30.424C83.413 30.424 83.821 30.312 84.181 30.088C84.541 29.856 84.825 29.544 85.033 29.152C85.241 28.752 85.345 28.304 85.345 27.808C85.345 27.312 85.241 26.868 85.033 26.476C84.825 26.084 84.541 25.776 84.181 25.552C83.821 25.32 83.413 25.204 82.957 25.204C82.501 25.204 82.089 25.32 81.721 25.552C81.353 25.776 81.061 26.084 80.845 26.476C80.629 26.868 80.521 27.312 80.521 27.808C80.521 28.304 80.629 28.752 80.845 29.152C81.061 29.544 81.349 29.856 81.709 30.088C82.077 30.312 82.493 30.424 82.957 30.424ZM87.8398 31V21.916H88.5598V28.408L88.1878 28.372L91.9558 24.628H92.9398L90.3717 27.196L93.1797 31H92.2798L89.6158 27.424L90.0958 27.436L88.3678 29.212L88.5598 28.72V31H87.8398ZM94.3671 31V24.628H95.0871V31H94.3671ZM94.3671 23.38V22.06H95.0871V23.38H94.3671ZM97.0624 31V24.628H97.7824V25.912L97.6024 25.864C97.7464 25.44 98.0024 25.104 98.3704 24.856C98.7464 24.608 99.1824 24.484 99.6784 24.484C100.118 24.484 100.518 24.584 100.878 24.784C101.238 24.984 101.526 25.264 101.742 25.624C101.958 25.976 102.066 26.38 102.066 26.836V31H101.346V27.04C101.346 26.656 101.27 26.328 101.118 26.056C100.966 25.776 100.754 25.564 100.482 25.42C100.218 25.268 99.9144 25.192 99.5704 25.192C99.2104 25.192 98.8944 25.276 98.6224 25.444C98.3504 25.612 98.1424 25.844 97.9984 26.14C97.8544 26.436 97.7824 26.776 97.7824 27.16V31H97.0624Z" fill="black"/>
<path d="M0.000682948 59.3903C0.000228864 59.3217 0.00683224 59.2533 0.0203888 59.186L4.02942 39.3029C4.13171 38.7956 4.60423 38.4501 5.1187 38.5065L37.1374 42.0178C37.2087 42.0256 37.2806 42.0257 37.3519 42.0182L59.8885 39.6276L71.003 39.9803L82.1176 40.333H105.205L128.506 38.3167L153.201 35C164.344 32.2085 167.182 34.0211 167 42.467L166.678 149.688C166.676 150.28 166.163 150.741 165.574 150.679L157.923 149.877C157.839 149.869 157.754 149.871 157.671 149.883L148.335 151.285L137.268 152.705L125.245 153.437H82.1176H40.5306C40.4818 153.437 40.4329 153.441 40.3846 153.448L36.8194 153.974C36.7033 153.991 36.5851 153.988 36.4702 153.964L30.4028 152.705L20.3484 151.974L10.3472 150.278C10.292 150.269 10.2361 150.264 10.1801 150.264H1.59572C1.04602 150.264 0.599384 149.82 0.595745 149.271L0.000682948 59.3903Z" fill="url(#paint0_linear_168_80)"/>
<path d="M23.2485 57.4517H40.7532" stroke="black" stroke-width="0.3" stroke-linecap="round"/>
<path d="M119.836 56.5138C126.145 56.5138 133.067 57.3194 139.217 56.2012" stroke="black" stroke-width="0.3" stroke-linecap="round"/>
<path d="M51.3811 73.706H115.148" stroke="black" stroke-width="0.7" stroke-linecap="round"/>
<path d="M55.7566 78.7075H122.962" stroke="black" stroke-width="0.7" stroke-linecap="round"/>
<path d="M65.1345 83.7089H107.333" stroke="black" stroke-width="0.7" stroke-linecap="round"/>
<path d="M42.6287 67.4542V90.5854" stroke="black" stroke-width="0.3" stroke-linecap="round"/>
<path d="M42.3159 90.5854H129.527" stroke="black" stroke-width="0.3" stroke-linecap="round"/>
<path d="M130.152 65.5788V91.5233" stroke="black" stroke-width="0.3" stroke-linecap="round"/>
<path d="M42.6287 66.2041C60.4331 65.6106 78.2683 65.6382 96.0805 65.44C112.109 65.2616 128.195 64.9113 144.218 65.5789" stroke="black" stroke-width="0.3" stroke-linecap="round"/>
<path d="M23.4659 103.795C23.4286 108.228 23.2072 112.647 23.0321 117.075C22.8593 121.444 22.3071 126.302 23.3157 130.605C23.6127 131.873 23.8001 132.487 24.9673 132.924C27.558 133.896 30.792 133.729 33.4924 133.792C37.5606 133.887 41.6353 133.825 45.7045 133.825C47.1782 133.825 48.6519 133.825 50.1256 133.825C50.5693 133.825 52.4613 134.125 52.8282 133.758C53.2642 133.322 52.895 130.295 52.895 129.971C52.895 124.629 52.7714 119.292 53.3454 113.972C53.4462 113.038 54.6311 102.623 53.3621 102.594C51.1094 102.543 48.8663 102.731 46.6221 102.895C41.1355 103.295 35.6806 102.995 30.1892 102.911C26.8502 102.86 23.7708 103.795 20.4629 103.795" stroke="black" stroke-width="0.3" stroke-linecap="round"/>
<path d="M59.5012 104.396C60.2232 105.118 59.8434 108.632 59.8683 109.368C60.0072 113.473 60.4424 117.465 60.9693 121.53C61.2765 123.899 61.2578 126.255 61.3197 128.637C61.3423 129.509 61.3061 130.328 61.9703 130.956C62.9714 131.901 64.6709 131.891 65.9409 131.957C70.105 132.174 74.301 132.066 78.47 132.174C82.2491 132.271 86.1711 132.584 89.9313 132.023C91.2537 131.826 92.531 131.537 93.8685 131.423C94.9481 131.331 96.0258 131.219 97.1051 131.123C98.5388 130.995 98.1048 130.488 97.8725 129.287C96.4049 121.705 97.0383 113.353 97.0383 105.664C97.0383 105.15 97.547 100.771 96.7214 100.309C96.3508 100.101 94.9989 100.206 94.8695 100.209C92.0997 100.265 89.3314 100.383 86.5613 100.426C78.5393 100.549 70.5244 100.192 62.5042 100.192" stroke="black" stroke-width="0.3" stroke-linecap="round"/>
<path d="M103.646 103.495C104.338 112.733 104.053 121.995 104.546 131.239C104.585 131.962 104.469 132.639 105.28 132.774C108.038 133.234 111.046 132.924 113.822 132.924C118.738 132.924 123.654 132.933 128.57 132.924C130.921 132.92 135.635 132.909 138.046 132.858C139.86 132.819 142.245 132.958 144.035 132.307C145.137 131.907 146.295 131.583 145.787 130.322C142.889 123.125 143.771 115.849 143.251 108.267C143.11 106.199 143.112 101.156 140.248 100.392C138.271 99.8649 135.577 100.998 133.675 101.327C128.366 102.244 123.124 102.205 117.759 102.177C113.982 102.158 110.24 102.348 106.498 102.878C105.448 103.027 104.094 103.047 103.345 103.796" stroke="black" stroke-width="0.3" stroke-linecap="round"/>
<path d="M67.3083 107.099C68.4089 109.85 74.8041 108.621 76.7677 108.467C79.2849 108.269 81.8609 108.489 84.3585 108.1C85.8242 107.872 87.2186 107.099 88.6294 107.099" stroke="black" stroke-width="0.3" stroke-linecap="round"/>
<path d="M72.4141 114.907C73.6975 114.693 74.9204 114.218 76.2178 114.056C77.4183 113.906 78.4854 114.623 79.5878 114.523C80.2602 114.462 80.4103 113.589 81.0893 113.472C82.4321 113.24 83.9762 113.593 85.3268 113.705" stroke="black" stroke-width="0.3" stroke-linecap="round"/>
<path d="M116.557 122.714C116.557 123.993 116.557 125.272 116.557 126.552C116.557 128.12 117.049 127.819 118.559 127.819C119.954 127.819 134.405 128.382 134.492 127.553C134.602 126.504 134.042 125.198 133.975 124.116C133.897 122.867 132.895 123.024 131.839 123.015C125.54 122.961 119.247 122.7 112.954 122.414" stroke="black" stroke-width="0.3" stroke-linecap="round"/>
<path d="M71.2131 123.315C71.4059 124.257 71.6344 125.194 71.747 126.151C71.9162 127.589 71.8466 127.819 73.3986 127.819C76.3849 127.819 79.3712 127.819 82.3575 127.819C83.8006 127.819 85.513 128.047 86.9287 127.636C88.4268 127.201 87.6297 123.144 86.1612 123.015C81.575 122.61 76.6 122.835 72.114 123.615" stroke="black" stroke-width="0.3" stroke-linecap="round"/>
<path d="M31.2727 123.615C31.2727 124.952 30.7831 127.091 32.2904 127.686C34.5476 128.577 36.8442 128.704 39.2473 128.52C42.6242 128.261 46.0189 128.073 49.3906 127.803C50.0223 127.752 48.447 126.936 48.106 126.401C47.4081 125.308 47.01 123.586 45.8538 122.848C43.2478 121.184 38.1955 122.128 35.3434 122.097C33.4141 122.077 31.0359 122.187 29.1707 121.814" stroke="black" stroke-width="0.3" stroke-linecap="round"/>
<path d="M33.6748 109.501C33.9681 109.836 34.5955 109.783 34.9761 109.818C37.1579 110.02 39.3749 110.426 41.5659 110.452C42.6906 110.466 43.1396 110.313 43.8849 109.568C44.9271 108.526 46.0199 109.509 47.1882 109.801" stroke="black" stroke-width="0.3" stroke-linecap="round"/>
<path d="M30.6726 114.606C33.3113 114.301 37.2199 112.847 39.6648 114.273C40.9284 115.01 43.0593 114.687 44.4863 114.907" stroke="black" stroke-width="0.3" stroke-linecap="round"/>
<path d="M113.855 108C113.339 108.344 115.04 108.405 115.657 108.467C117.726 108.674 119.821 108.6 121.897 108.6C124.121 108.6 126.345 108.6 128.57 108.6" stroke="black" stroke-width="0.3" stroke-linecap="round"/>
<path d="M116.557 114.006C118.358 113.327 120.138 112.536 122.112 112.671C123.678 112.778 124.892 113.788 126.4 114.089C129.117 114.632 132.114 114.306 134.875 114.306" stroke="black" stroke-width="0.3" stroke-linecap="round"/>
<defs>
<linearGradient id="paint0_linear_168_80" x1="-66.7322" y1="150.792" x2="-52.3207" y2="-107.353" gradientUnits="userSpaceOnUse">
<stop stop-color="#E7E7E7"/>
<stop offset="1" stop-color="#E5E5E5" stop-opacity="0"/>
</linearGradient>
</defs>
</svg>
