<svg width="381" height="166" viewBox="0 0 381 166" fill="none" xmlns="http://www.w3.org/2000/svg">
<g opacity="0.1">
<path fill-rule="evenodd" clip-rule="evenodd" d="M359.24 41.5579C359.982 38.4795 359.933 35.515 360.022 32.3926C360.039 31.7828 359.57 31.2758 358.974 31.2574C358.378 31.2391 357.88 31.7203 357.863 32.3301C357.779 35.2909 357.847 38.1084 357.142 41.0325C357 41.624 357.354 42.2227 357.933 42.366C358.512 42.5129 359.098 42.1493 359.24 41.5579Z" fill="#101828"/>
<path fill-rule="evenodd" clip-rule="evenodd" d="M365.543 47.5236C370.577 42.8289 375.319 36.7897 378.634 30.6918C378.923 30.1591 378.735 29.4868 378.214 29.193C377.692 28.8991 377.034 29.0901 376.745 29.6228C373.54 35.5187 368.953 41.3595 364.086 45.8963C363.646 46.3077 363.615 47.0056 364.017 47.4538C364.419 47.902 365.103 47.935 365.543 47.5236Z" fill="#101828"/>
<path fill-rule="evenodd" clip-rule="evenodd" d="M366.818 52.6518C371.422 53.4269 376.167 52.1045 380.353 50.2347C380.899 49.9886 381.148 49.3384 380.909 48.7837C380.67 48.2253 380.033 47.9718 379.487 48.2143C375.674 49.9188 371.363 51.1824 367.17 50.4771C366.581 50.378 366.025 50.7857 365.928 51.3845C365.831 51.9832 366.23 52.5526 366.818 52.6518Z" fill="#101828"/>
</g>
<path d="M68.3287 11V3.55H68.8787L73.3887 10.02H73.1787V3.55H73.8287V11H73.2787L68.7487 4.49H68.9787V11H68.3287ZM77.1117 11.12C76.7784 11.12 76.4817 11.0567 76.2217 10.93C75.9617 10.8033 75.7551 10.6267 75.6017 10.4C75.4484 10.1733 75.3717 9.91333 75.3717 9.62C75.3717 9.36 75.4284 9.11667 75.5417 8.89C75.6551 8.66333 75.8384 8.47 76.0917 8.31C76.3451 8.14333 76.6751 8.02667 77.0817 7.96L79.2317 7.6V8.16L77.2417 8.49C76.7884 8.56333 76.4684 8.7 76.2817 8.9C76.0951 9.1 76.0017 9.33333 76.0017 9.6C76.0017 9.88667 76.1084 10.12 76.3217 10.3C76.5417 10.48 76.8184 10.57 77.1517 10.57C77.5384 10.57 77.8751 10.4833 78.1617 10.31C78.4484 10.13 78.6717 9.89667 78.8317 9.61C78.9917 9.31667 79.0717 8.99667 79.0717 8.65V7.33C79.0717 6.97667 78.9451 6.69 78.6917 6.47C78.4384 6.25 78.1084 6.14 77.7017 6.14C77.3684 6.14 77.0684 6.22333 76.8017 6.39C76.5351 6.55667 76.3317 6.77333 76.1917 7.04L75.6517 6.75C75.7517 6.53667 75.9051 6.34 76.1117 6.16C76.3184 5.98 76.5584 5.83667 76.8317 5.73C77.1051 5.62333 77.3951 5.57 77.7017 5.57C78.0884 5.57 78.4284 5.64667 78.7217 5.8C79.0217 5.94667 79.2551 6.15333 79.4217 6.42C79.5884 6.68 79.6717 6.98333 79.6717 7.33V11H79.0717V9.89L79.1417 9.94C79.0551 10.1533 78.9117 10.35 78.7117 10.53C78.5117 10.7033 78.2751 10.8467 78.0017 10.96C77.7351 11.0667 77.4384 11.12 77.1117 11.12ZM81.3241 13V5.69H81.9241V7.03L81.8241 6.84C82.0241 6.45333 82.3108 6.14667 82.6841 5.92C83.0641 5.68667 83.4975 5.57 83.9841 5.57C84.4841 5.57 84.9308 5.69 85.3241 5.93C85.7175 6.17 86.0275 6.5 86.2541 6.92C86.4808 7.34 86.5941 7.81667 86.5941 8.35C86.5941 8.87 86.4808 9.34 86.2541 9.76C86.0275 10.18 85.7175 10.5133 85.3241 10.76C84.9308 11 84.4841 11.12 83.9841 11.12C83.4975 11.12 83.0608 11.0033 82.6741 10.77C82.2941 10.53 82.0108 10.2033 81.8241 9.79L81.9241 9.65V13H81.3241ZM83.9641 10.52C84.3441 10.52 84.6841 10.4267 84.9841 10.24C85.2841 10.0467 85.5208 9.78667 85.6941 9.46C85.8675 9.12667 85.9541 8.75333 85.9541 8.34C85.9541 7.92667 85.8675 7.55667 85.6941 7.23C85.5208 6.90333 85.2841 6.64667 84.9841 6.46C84.6841 6.26667 84.3441 6.17 83.9641 6.17C83.5841 6.17 83.2408 6.26667 82.9341 6.46C82.6275 6.64667 82.3841 6.90333 82.2041 7.23C82.0241 7.55667 81.9341 7.92667 81.9341 8.34C81.9341 8.75333 82.0241 9.12667 82.2041 9.46C82.3841 9.78667 82.6241 10.0467 82.9241 10.24C83.2308 10.4267 83.5775 10.52 83.9641 10.52ZM88.0331 11V3.43H88.6331V8.84L88.3231 8.81L91.4631 5.69H92.2831L90.1431 7.83L92.4831 11H91.7331L89.5131 8.02L89.9131 8.03L88.4731 9.51L88.6331 9.1V11H88.0331ZM93.4726 11V5.69H94.0726V11H93.4726ZM93.4726 4.65V3.55H94.0726V4.65H93.4726ZM95.7187 11V5.69H96.3187V6.76L96.1687 6.72C96.2887 6.36667 96.502 6.08667 96.8087 5.88C97.122 5.67333 97.4853 5.57 97.8987 5.57C98.2653 5.57 98.5987 5.65333 98.8987 5.82C99.1987 5.98667 99.4387 6.22 99.6187 6.52C99.7987 6.81333 99.8887 7.15 99.8887 7.53V11H99.2887V7.7C99.2887 7.38 99.2253 7.10667 99.0987 6.88C98.972 6.64667 98.7953 6.47 98.5687 6.35C98.3487 6.22333 98.0953 6.16 97.8087 6.16C97.5087 6.16 97.2453 6.23 97.0187 6.37C96.792 6.51 96.6187 6.70333 96.4987 6.95C96.3787 7.19667 96.3187 7.48 96.3187 7.8V11H95.7187Z" fill="black"/>
<path d="M247.143 46V38.55H249.643C250.116 38.55 250.533 38.6433 250.893 38.83C251.253 39.0167 251.533 39.28 251.733 39.62C251.94 39.96 252.043 40.3533 252.043 40.8C252.043 41.3333 251.896 41.79 251.603 42.17C251.316 42.5433 250.93 42.8 250.443 42.94L252.203 46H251.433L249.583 42.74L250.123 43.05H247.793V46H247.143ZM247.793 42.45H249.663C250.003 42.45 250.303 42.3833 250.563 42.25C250.823 42.11 251.026 41.9167 251.173 41.67C251.32 41.4167 251.393 41.1233 251.393 40.79C251.393 40.4567 251.32 40.17 251.173 39.93C251.026 39.6833 250.823 39.4933 250.563 39.36C250.303 39.22 250.003 39.15 249.663 39.15H247.793V42.45ZM255.537 46.12C255.037 46.12 254.587 46 254.187 45.76C253.787 45.5133 253.471 45.18 253.237 44.76C253.004 44.3333 252.887 43.8567 252.887 43.33C252.887 42.8033 253.001 42.3333 253.227 41.92C253.454 41.5 253.761 41.17 254.147 40.93C254.534 40.69 254.967 40.57 255.447 40.57C255.814 40.57 256.144 40.6367 256.437 40.77C256.737 40.9033 256.994 41.09 257.207 41.33C257.427 41.5633 257.594 41.8333 257.707 42.14C257.827 42.44 257.887 42.7567 257.887 43.09C257.887 43.1567 257.884 43.2267 257.877 43.3C257.871 43.3733 257.861 43.45 257.847 43.53H253.237V42.98H257.507L257.237 43.19C257.277 42.8033 257.221 42.4567 257.067 42.15C256.914 41.8367 256.694 41.59 256.407 41.41C256.127 41.2233 255.807 41.13 255.447 41.13C255.087 41.13 254.757 41.2267 254.457 41.42C254.157 41.6067 253.921 41.8667 253.747 42.2C253.574 42.5267 253.494 42.9067 253.507 43.34C253.494 43.7733 253.577 44.1567 253.757 44.49C253.937 44.8233 254.184 45.0867 254.497 45.28C254.811 45.4667 255.157 45.56 255.537 45.56C255.924 45.56 256.261 45.47 256.547 45.29C256.834 45.1033 257.067 44.8567 257.247 44.55L257.757 44.82C257.637 45.0667 257.467 45.29 257.247 45.49C257.027 45.6833 256.771 45.8367 256.477 45.95C256.191 46.0633 255.877 46.12 255.537 46.12ZM260.741 46.12C260.407 46.12 260.111 46.0567 259.851 45.93C259.591 45.8033 259.384 45.6267 259.231 45.4C259.077 45.1733 259.001 44.9133 259.001 44.62C259.001 44.36 259.057 44.1167 259.171 43.89C259.284 43.6633 259.467 43.47 259.721 43.31C259.974 43.1433 260.304 43.0267 260.711 42.96L262.861 42.6V43.16L260.871 43.49C260.417 43.5633 260.097 43.7 259.911 43.9C259.724 44.1 259.631 44.3333 259.631 44.6C259.631 44.8867 259.737 45.12 259.951 45.3C260.171 45.48 260.447 45.57 260.781 45.57C261.167 45.57 261.504 45.4833 261.791 45.31C262.077 45.13 262.301 44.8967 262.461 44.61C262.621 44.3167 262.701 43.9967 262.701 43.65V42.33C262.701 41.9767 262.574 41.69 262.321 41.47C262.067 41.25 261.737 41.14 261.331 41.14C260.997 41.14 260.697 41.2233 260.431 41.39C260.164 41.5567 259.961 41.7733 259.821 42.04L259.281 41.75C259.381 41.5367 259.534 41.34 259.741 41.16C259.947 40.98 260.187 40.8367 260.461 40.73C260.734 40.6233 261.024 40.57 261.331 40.57C261.717 40.57 262.057 40.6467 262.351 40.8C262.651 40.9467 262.884 41.1533 263.051 41.42C263.217 41.68 263.301 41.9833 263.301 42.33V46H262.701V44.89L262.771 44.94C262.684 45.1533 262.541 45.35 262.341 45.53C262.141 45.7033 261.904 45.8467 261.631 45.96C261.364 46.0667 261.067 46.12 260.741 46.12ZM267.373 46.12C266.866 46.12 266.413 46 266.013 45.76C265.62 45.5133 265.306 45.18 265.073 44.76C264.846 44.34 264.733 43.8667 264.733 43.34C264.733 42.8067 264.846 42.3333 265.073 41.92C265.306 41.5 265.62 41.17 266.013 40.93C266.413 40.69 266.866 40.57 267.373 40.57C267.706 40.57 268.013 40.6267 268.293 40.74C268.58 40.8533 268.833 41.0067 269.053 41.2C269.273 41.3933 269.44 41.6167 269.553 41.87L269.023 42.15C268.863 41.8433 268.64 41.6 268.353 41.42C268.066 41.24 267.74 41.15 267.373 41.15C266.993 41.15 266.65 41.2433 266.343 41.43C266.043 41.6167 265.803 41.8767 265.623 42.21C265.443 42.5367 265.353 42.9133 265.353 43.34C265.353 43.7667 265.443 44.1467 265.623 44.48C265.803 44.8067 266.043 45.0633 266.343 45.25C266.65 45.4367 266.993 45.53 267.373 45.53C267.74 45.53 268.066 45.44 268.353 45.26C268.64 45.08 268.863 44.8333 269.023 44.52L269.553 44.81C269.44 45.0567 269.273 45.28 269.053 45.48C268.833 45.6733 268.58 45.83 268.293 45.95C268.013 46.0633 267.706 46.12 267.373 46.12ZM272.918 46.06C272.478 46.06 272.138 45.9367 271.898 45.69C271.658 45.4367 271.538 45.07 271.538 44.59V41.26H270.538V40.69H270.918C271.118 40.69 271.272 40.63 271.378 40.51C271.485 40.39 271.538 40.2267 271.538 40.02V39.45H272.138V40.69H273.298V41.26H272.138V44.59C272.138 44.7367 272.158 44.88 272.198 45.02C272.245 45.16 272.332 45.2733 272.458 45.36C272.585 45.4467 272.768 45.49 273.008 45.49C273.062 45.49 273.125 45.4867 273.198 45.48C273.278 45.4733 273.342 45.4667 273.388 45.46V46C273.315 46.02 273.232 46.0333 273.138 46.04C273.045 46.0533 272.972 46.06 272.918 46.06ZM277.996 46.12C277.663 46.12 277.366 46.0567 277.106 45.93C276.846 45.8033 276.64 45.6267 276.486 45.4C276.333 45.1733 276.256 44.9133 276.256 44.62C276.256 44.36 276.313 44.1167 276.426 43.89C276.54 43.6633 276.723 43.47 276.976 43.31C277.23 43.1433 277.56 43.0267 277.966 42.96L280.116 42.6V43.16L278.126 43.49C277.673 43.5633 277.353 43.7 277.166 43.9C276.98 44.1 276.886 44.3333 276.886 44.6C276.886 44.8867 276.993 45.12 277.206 45.3C277.426 45.48 277.703 45.57 278.036 45.57C278.423 45.57 278.76 45.4833 279.046 45.31C279.333 45.13 279.556 44.8967 279.716 44.61C279.876 44.3167 279.956 43.9967 279.956 43.65V42.33C279.956 41.9767 279.83 41.69 279.576 41.47C279.323 41.25 278.993 41.14 278.586 41.14C278.253 41.14 277.953 41.2233 277.686 41.39C277.42 41.5567 277.216 41.7733 277.076 42.04L276.536 41.75C276.636 41.5367 276.79 41.34 276.996 41.16C277.203 40.98 277.443 40.8367 277.716 40.73C277.99 40.6233 278.28 40.57 278.586 40.57C278.973 40.57 279.313 40.6467 279.606 40.8C279.906 40.9467 280.14 41.1533 280.306 41.42C280.473 41.68 280.556 41.9833 280.556 42.33V46H279.956V44.89L280.026 44.94C279.94 45.1533 279.796 45.35 279.596 45.53C279.396 45.7033 279.16 45.8467 278.886 45.96C278.62 46.0667 278.323 46.12 277.996 46.12ZM282.209 48V40.69H282.809V42.03L282.709 41.84C282.909 41.4533 283.196 41.1467 283.569 40.92C283.949 40.6867 284.382 40.57 284.869 40.57C285.369 40.57 285.816 40.69 286.209 40.93C286.602 41.17 286.912 41.5 287.139 41.92C287.366 42.34 287.479 42.8167 287.479 43.35C287.479 43.87 287.366 44.34 287.139 44.76C286.912 45.18 286.602 45.5133 286.209 45.76C285.816 46 285.369 46.12 284.869 46.12C284.382 46.12 283.946 46.0033 283.559 45.77C283.179 45.53 282.896 45.2033 282.709 44.79L282.809 44.65V48H282.209ZM284.849 45.52C285.229 45.52 285.569 45.4267 285.869 45.24C286.169 45.0467 286.406 44.7867 286.579 44.46C286.752 44.1267 286.839 43.7533 286.839 43.34C286.839 42.9267 286.752 42.5567 286.579 42.23C286.406 41.9033 286.169 41.6467 285.869 41.46C285.569 41.2667 285.229 41.17 284.849 41.17C284.469 41.17 284.126 41.2667 283.819 41.46C283.512 41.6467 283.269 41.9033 283.089 42.23C282.909 42.5567 282.819 42.9267 282.819 43.34C282.819 43.7533 282.909 44.1267 283.089 44.46C283.269 44.7867 283.509 45.0467 283.809 45.24C284.116 45.4267 284.462 45.52 284.849 45.52ZM288.918 48V40.69H289.518V42.03L289.418 41.84C289.618 41.4533 289.905 41.1467 290.278 40.92C290.658 40.6867 291.091 40.57 291.578 40.57C292.078 40.57 292.525 40.69 292.918 40.93C293.311 41.17 293.621 41.5 293.848 41.92C294.075 42.34 294.188 42.8167 294.188 43.35C294.188 43.87 294.075 44.34 293.848 44.76C293.621 45.18 293.311 45.5133 292.918 45.76C292.525 46 292.078 46.12 291.578 46.12C291.091 46.12 290.655 46.0033 290.268 45.77C289.888 45.53 289.605 45.2033 289.418 44.79L289.518 44.65V48H288.918ZM291.558 45.52C291.938 45.52 292.278 45.4267 292.578 45.24C292.878 45.0467 293.115 44.7867 293.288 44.46C293.461 44.1267 293.548 43.7533 293.548 43.34C293.548 42.9267 293.461 42.5567 293.288 42.23C293.115 41.9033 292.878 41.6467 292.578 41.46C292.278 41.2667 291.938 41.17 291.558 41.17C291.178 41.17 290.835 41.2667 290.528 41.46C290.221 41.6467 289.978 41.9033 289.798 42.23C289.618 42.5567 289.528 42.9267 289.528 43.34C289.528 43.7533 289.618 44.1267 289.798 44.46C289.978 44.7867 290.218 45.0467 290.518 45.24C290.825 45.4267 291.171 45.52 291.558 45.52Z" fill="black"/>
<rect x="184.5" y="53.5" width="172" height="112" rx="1.5" stroke="#E1E1E1"/>
<path d="M298.072 86.5946H239.632C236.649 86.5946 234.222 85.2245 234.222 83.5405C234.222 81.8565 236.649 80.4865 239.632 80.4865H298.072C301.055 80.4865 303.482 81.8565 303.482 83.5405C303.482 85.2245 301.055 86.5946 298.072 86.5946Z" fill="#2E2E2E"/>
<path d="M231.517 123.243H202.298C200.806 123.243 199.593 122.558 199.593 121.716C199.593 120.874 200.806 120.189 202.298 120.189H231.517C233.009 120.189 234.222 120.874 234.222 121.716C234.222 122.558 233.009 123.243 231.517 123.243Z" fill="#9C9C9C"/>
<path d="M285.036 123.243H255.816C254.324 123.243 253.111 122.558 253.111 121.716C253.111 120.874 254.324 120.189 255.816 120.189H285.036C286.527 120.189 287.741 120.874 287.741 121.716C287.741 122.558 286.527 123.243 285.036 123.243Z" fill="#9C9C9C"/>
<path d="M338.554 123.243H309.335C307.843 123.243 306.63 122.558 306.63 121.716C306.63 120.874 307.843 120.189 309.335 120.189H338.554C340.046 120.189 341.259 120.874 341.259 121.716C341.259 122.558 340.046 123.243 338.554 123.243Z" fill="#9C9C9C"/>
<path d="M231.517 129.351H202.298C200.806 129.351 199.593 128.666 199.593 127.824C199.593 126.982 200.806 126.297 202.298 126.297H231.517C233.009 126.297 234.222 126.982 234.222 127.824C234.222 128.666 233.009 129.351 231.517 129.351Z" fill="#9C9C9C"/>
<path d="M285.036 129.351H255.816C254.324 129.351 253.111 128.666 253.111 127.824C253.111 126.982 254.324 126.297 255.816 126.297H285.036C286.527 126.297 287.741 126.982 287.741 127.824C287.741 128.666 286.527 129.351 285.036 129.351Z" fill="#9C9C9C"/>
<path d="M338.554 129.351H309.335C307.843 129.351 306.63 128.666 306.63 127.824C306.63 126.982 307.843 126.297 309.335 126.297H338.554C340.046 126.297 341.259 126.982 341.259 127.824C341.259 128.666 340.046 129.351 338.554 129.351Z" fill="#9C9C9C"/>
<path d="M298.072 95.7567H239.632C236.649 95.7567 234.222 94.3867 234.222 92.7027C234.222 91.0186 236.649 89.6486 239.632 89.6486H298.072C301.055 89.6486 303.482 91.0186 303.482 92.7027C303.482 94.3867 301.055 95.7567 298.072 95.7567Z" fill="#2E2E2E"/>
<path d="M292.759 104.919H244.945C242.504 104.919 240.519 103.549 240.519 101.865C240.519 100.181 242.504 98.8108 244.945 98.8108H292.759C295.2 98.8108 297.185 100.181 297.185 101.865C297.185 103.549 295.2 104.919 292.759 104.919Z" fill="#2E2E2E"/>
<path d="M224.233 68.2702H193.841C193.542 68.2702 193.296 67.5859 193.296 66.7432C193.296 65.9005 193.541 65.2162 193.841 65.2162H224.233C224.533 65.2162 224.778 65.9005 224.778 66.7432C224.778 67.5859 224.534 68.2702 224.233 68.2702Z" fill="#DFDFDF"/>
<path d="M343.863 68.2702H313.471C313.171 68.2702 312.926 67.5859 312.926 66.7432C312.926 65.9005 313.17 65.2162 313.471 65.2162H343.863C344.162 65.2162 344.408 65.9005 344.408 66.7432C344.408 67.5859 344.163 68.2702 343.863 68.2702Z" fill="#DFDFDF"/>
<rect x="221.78" y="74.5284" width="97.2926" height="36.3486" stroke="black" stroke-width="0.3"/>
<rect x="193.446" y="114.231" width="46.9222" height="36.3486" stroke="black" stroke-width="0.3"/>
<rect x="246.965" y="114.231" width="46.9222" height="36.3486" stroke="black" stroke-width="0.3"/>
<rect x="300.483" y="114.231" width="46.9222" height="36.3486" stroke="black" stroke-width="0.3"/>
<rect x="205.889" y="138.513" width="22.037" height="6.10811" fill="#2E2E2E"/>
<rect x="259.407" y="138.513" width="22.037" height="6.10811" fill="#2E2E2E"/>
<rect x="312.926" y="138.513" width="22.037" height="6.10811" fill="#2E2E2E"/>
<path d="M0.000682948 38.3903C0.000228864 38.3217 0.00683224 38.2533 0.0203888 38.186L4.02942 18.3029C4.13171 17.7956 4.60423 17.4501 5.1187 17.5066L37.1374 21.0178C37.2087 21.0256 37.2806 21.0257 37.3519 21.0182L59.8885 18.6276L71.003 18.9803L82.1176 19.333H105.205L128.506 17.3167L153.201 14C164.344 11.2085 167.182 13.0211 167 21.467L166.678 128.688C166.676 129.28 166.163 129.741 165.574 129.679L157.923 128.877C157.839 128.869 157.754 128.871 157.671 128.883L148.335 130.285L137.268 131.705L125.245 132.437H82.1176H40.5306C40.4818 132.437 40.4329 132.441 40.3846 132.448L36.8194 132.974C36.7033 132.991 36.5851 132.988 36.4702 132.964L30.4028 131.705L20.3484 130.974L10.3472 129.278C10.292 129.269 10.2361 129.264 10.1801 129.264H1.59572C1.04602 129.264 0.599384 128.82 0.595745 128.271L0.000682948 38.3903Z" fill="url(#paint0_linear_159_71)"/>
<path d="M23.2485 36.4517H40.7532" stroke="black" stroke-width="0.3" stroke-linecap="round"/>
<path d="M119.836 35.5138C126.145 35.5138 133.067 36.3194 139.217 35.2012" stroke="black" stroke-width="0.3" stroke-linecap="round"/>
<path d="M51.3811 52.7061H115.148" stroke="black" stroke-width="0.7" stroke-linecap="round"/>
<path d="M55.7566 57.7075H122.962" stroke="black" stroke-width="0.7" stroke-linecap="round"/>
<path d="M65.1345 62.7089H107.333" stroke="black" stroke-width="0.7" stroke-linecap="round"/>
<path d="M42.6287 46.4542V69.5854" stroke="black" stroke-width="0.3" stroke-linecap="round"/>
<path d="M42.3159 69.5854H129.527" stroke="black" stroke-width="0.3" stroke-linecap="round"/>
<path d="M130.152 44.5789V70.5233" stroke="black" stroke-width="0.3" stroke-linecap="round"/>
<path d="M42.6287 45.2041C60.4331 44.6106 78.2683 44.6382 96.0805 44.44C112.109 44.2616 128.195 43.9113 144.218 44.5789" stroke="black" stroke-width="0.3" stroke-linecap="round"/>
<path d="M23.4659 82.7955C23.4286 87.2275 23.2072 91.6474 23.0321 96.0753C22.8593 100.444 22.3071 105.302 23.3157 109.605C23.6127 110.873 23.8001 111.487 24.9673 111.924C27.558 112.896 30.792 112.729 33.4924 112.792C37.5606 112.887 41.6353 112.825 45.7045 112.825C47.1782 112.825 48.6519 112.825 50.1256 112.825C50.5693 112.825 52.4613 113.125 52.8282 112.758C53.2642 112.322 52.895 109.295 52.895 108.971C52.895 103.629 52.7714 98.2916 53.3454 92.9723C53.4462 92.0381 54.6311 81.6232 53.3621 81.5943C51.1094 81.5431 48.8663 81.7308 46.6221 81.8946C41.1355 82.2951 35.6806 81.9952 30.1892 81.9113C26.8502 81.8603 23.7708 82.7955 20.4629 82.7955" stroke="black" stroke-width="0.3" stroke-linecap="round"/>
<path d="M59.5012 83.3962C60.2232 84.1181 59.8434 87.6324 59.8683 88.3678C60.0072 92.4729 60.4424 96.465 60.9693 100.53C61.2765 102.899 61.2578 105.255 61.3197 107.637C61.3423 108.509 61.3061 109.328 61.9703 109.956C62.9714 110.901 64.6709 110.891 65.9409 110.957C70.105 111.174 74.301 111.066 78.47 111.174C82.2491 111.271 86.1711 111.584 89.9313 111.023C91.2537 110.826 92.531 110.537 93.8685 110.423C94.9481 110.331 96.0258 110.219 97.1051 110.123C98.5388 109.995 98.1048 109.488 97.8725 108.287C96.4049 100.705 97.0383 92.3534 97.0383 84.6641C97.0383 84.1495 97.547 79.7712 96.7214 79.3088C96.3508 79.1013 94.9989 79.2061 94.8695 79.2087C92.0997 79.2652 89.3314 79.3831 86.5613 79.4256C78.5393 79.5487 70.5244 79.192 62.5042 79.192" stroke="black" stroke-width="0.3" stroke-linecap="round"/>
<path d="M103.646 82.4954C104.338 91.7334 104.053 100.995 104.546 110.239C104.585 110.962 104.469 111.639 105.28 111.774C108.038 112.234 111.046 111.924 113.822 111.924C118.738 111.924 123.654 111.933 128.57 111.924C130.921 111.92 135.635 111.909 138.046 111.858C139.86 111.819 142.245 111.958 144.035 111.307C145.137 110.907 146.295 110.583 145.787 109.322C142.889 102.125 143.771 94.8486 143.251 87.2667C143.11 85.1986 143.112 80.1559 140.248 79.3923C138.271 78.8649 135.577 79.9978 133.675 80.3265C128.366 81.2443 123.124 81.205 117.759 81.1774C113.982 81.1579 110.24 81.3483 106.498 81.8781C105.448 82.0269 104.094 82.0469 103.345 82.7957" stroke="black" stroke-width="0.3" stroke-linecap="round"/>
<path d="M67.3083 86.099C68.4089 88.8503 74.8041 87.6215 76.7677 87.467C79.2849 87.269 81.8609 87.4888 84.3585 87.1C85.8242 86.8718 87.2186 86.099 88.6294 86.099" stroke="black" stroke-width="0.3" stroke-linecap="round"/>
<path d="M72.4141 93.9067C73.6975 93.6928 74.9204 93.218 76.2178 93.0559C77.4183 92.9058 78.4854 93.6232 79.5878 93.523C80.2602 93.4619 80.4103 92.589 81.0893 92.4719C82.4321 92.2404 83.9762 92.593 85.3268 92.7055" stroke="black" stroke-width="0.3" stroke-linecap="round"/>
<path d="M116.557 101.714C116.557 102.993 116.557 104.273 116.557 105.552C116.557 107.12 117.049 106.819 118.559 106.819C119.954 106.819 134.405 107.382 134.492 106.553C134.602 105.504 134.042 104.198 133.975 103.116C133.897 101.867 132.895 102.024 131.839 102.015C125.54 101.961 119.247 101.7 112.954 101.414" stroke="black" stroke-width="0.3" stroke-linecap="round"/>
<path d="M71.2131 102.315C71.4059 103.257 71.6344 104.194 71.747 105.151C71.9162 106.589 71.8466 106.819 73.3986 106.819C76.3849 106.819 79.3712 106.819 82.3575 106.819C83.8006 106.819 85.513 107.047 86.9287 106.636C88.4268 106.201 87.6297 102.144 86.1612 102.015C81.575 101.61 76.6 101.835 72.114 102.615" stroke="black" stroke-width="0.3" stroke-linecap="round"/>
<path d="M31.2727 102.615C31.2727 103.952 30.7831 106.091 32.2904 106.686C34.5476 107.577 36.8442 107.704 39.2473 107.52C42.6242 107.261 46.0189 107.073 49.3906 106.803C50.0223 106.752 48.447 105.936 48.106 105.401C47.4081 104.308 47.01 102.586 45.8538 101.848C43.2478 100.184 38.1955 101.127 35.3434 101.097C33.4141 101.077 31.0359 101.187 29.1707 100.814" stroke="black" stroke-width="0.3" stroke-linecap="round"/>
<path d="M33.6748 88.5012C33.9681 88.8364 34.5955 88.783 34.9761 88.8181C37.1579 89.0195 39.3749 89.426 41.5659 89.4521C42.6906 89.4655 43.1396 89.3132 43.8849 88.5679C44.9271 87.5257 46.0199 88.5094 47.1882 88.8015" stroke="black" stroke-width="0.3" stroke-linecap="round"/>
<path d="M30.6726 93.6065C33.3113 93.3009 37.2199 91.8466 39.6648 93.2728C40.9284 94.0098 43.0593 93.6872 44.4863 93.9068" stroke="black" stroke-width="0.3" stroke-linecap="round"/>
<path d="M113.855 86.9997C113.339 87.3439 115.04 87.4051 115.657 87.4668C117.726 87.6737 119.821 87.6003 121.897 87.6003C124.121 87.6003 126.345 87.6003 128.57 87.6003" stroke="black" stroke-width="0.3" stroke-linecap="round"/>
<path d="M116.557 93.0057C118.358 92.3268 120.138 91.5364 122.112 91.6711C123.678 91.7778 124.892 92.7876 126.4 93.0891C129.117 93.6325 132.114 93.306 134.875 93.306" stroke="black" stroke-width="0.3" stroke-linecap="round"/>
<path opacity="0.3" d="M201.523 38.4932C201.68 38.7204 201.624 39.0318 201.396 39.1888C201.169 39.3457 200.858 39.2888 200.701 39.0616L201.523 38.4932ZM178.891 30.4608C178.627 30.5432 178.347 30.3963 178.264 30.1328C178.182 29.8692 178.329 29.5888 178.592 29.5063L178.891 30.4608ZM201.71 33.6045C201.741 33.3302 201.989 33.1331 202.263 33.1643C202.538 33.1956 202.735 33.4433 202.704 33.7177L201.71 33.6045ZM201.683 38.2586L202.18 38.3152L202.18 38.3156L201.683 38.2586ZM200.471 39.3309L200.466 38.8309L200.467 38.8309L200.471 39.3309ZM195.693 39.8759C195.417 39.8785 195.191 39.6567 195.189 39.3806C195.186 39.1045 195.408 38.8785 195.684 38.8759L195.693 39.8759ZM201.112 38.7774C200.701 39.0616 200.701 39.0617 200.701 39.0618C200.701 39.0618 200.701 39.0618 200.701 39.0618C200.701 39.0617 200.701 39.0616 200.701 39.0614C200.7 39.0609 200.7 39.06 200.699 39.0588C200.697 39.0564 200.694 39.0524 200.691 39.0471C200.683 39.0363 200.671 39.0197 200.655 38.9976C200.624 38.9534 200.575 38.8872 200.512 38.8018C200.384 38.6308 200.193 38.3827 199.943 38.0785C199.444 37.4696 198.711 36.6378 197.782 35.7499C195.917 33.9679 193.29 31.99 190.193 31.1043L190.468 30.1428C193.786 31.0914 196.55 33.1905 198.472 35.0268C199.437 35.9481 200.197 36.8108 200.716 37.4442C200.976 37.761 201.176 38.021 201.312 38.2028C201.38 38.2937 201.432 38.3651 201.468 38.4144C201.485 38.439 201.499 38.4582 201.508 38.4714C201.513 38.478 201.516 38.4832 201.519 38.4868C201.52 38.4886 201.521 38.4901 201.522 38.4911C201.522 38.4917 201.523 38.4921 201.523 38.4924C201.523 38.4926 201.523 38.4928 201.523 38.4929C201.523 38.493 201.523 38.4932 201.112 38.7774ZM190.193 31.1043C183.873 29.2972 179.855 30.1593 178.891 30.4608L178.592 29.5063C179.74 29.1474 183.957 28.2813 190.468 30.1428L190.193 31.1043ZM202.704 33.7177L202.18 38.3152L201.186 38.202L201.71 33.6045L202.704 33.7177ZM202.18 38.3156C202.081 39.1796 201.345 39.8235 200.475 39.8309L200.467 38.8309C200.845 38.8277 201.146 38.5505 201.186 38.2015L202.18 38.3156ZM200.476 39.8309L195.693 39.8759L195.684 38.8759L200.466 38.8309L200.476 39.8309Z" fill="#101828"/>
<defs>
<linearGradient id="paint0_linear_159_71" x1="-66.7322" y1="129.792" x2="-52.3207" y2="-128.353" gradientUnits="userSpaceOnUse">
<stop stop-color="#E7E7E7"/>
<stop offset="1" stop-color="#E5E5E5" stop-opacity="0"/>
</linearGradient>
</defs>
</svg>
