<svg width="309" height="33" viewBox="0 0 309 33" fill="none" xmlns="http://www.w3.org/2000/svg">
<g clip-path="url(#clip0_5_2)">
<path d="M238.65 13.8111V6.3611H239.2L241.98 10.5011H241.71L244.5 6.3611H245.05V13.8111H244.4V7.3111L244.56 7.4011L241.86 11.4311H241.83L239.13 7.4011L239.3 7.3111V13.8111H238.65ZM248.331 13.9311C247.998 13.9311 247.701 13.8678 247.441 13.7411C247.181 13.6144 246.975 13.4378 246.821 13.2111C246.668 12.9844 246.591 12.7244 246.591 12.4311C246.591 12.1711 246.648 11.9278 246.761 11.7011C246.875 11.4744 247.058 11.2811 247.311 11.1211C247.565 10.9544 247.895 10.8378 248.301 10.7711L250.451 10.4111V10.9711L248.461 11.3011C248.008 11.3744 247.688 11.5111 247.501 11.7111C247.315 11.9111 247.221 12.1444 247.221 12.4111C247.221 12.6978 247.328 12.9311 247.541 13.1111C247.761 13.2911 248.038 13.3811 248.371 13.3811C248.758 13.3811 249.095 13.2944 249.381 13.1211C249.668 12.9411 249.891 12.7078 250.051 12.4211C250.211 12.1278 250.291 11.8078 250.291 11.4611V10.1411C250.291 9.78776 250.165 9.5011 249.911 9.2811C249.658 9.0611 249.328 8.9511 248.921 8.9511C248.588 8.9511 248.288 9.03443 248.021 9.2011C247.755 9.36776 247.551 9.58443 247.411 9.8511L246.871 9.5611C246.971 9.34776 247.125 9.1511 247.331 8.9711C247.538 8.7911 247.778 8.64776 248.051 8.5411C248.325 8.43443 248.615 8.3811 248.921 8.3811C249.308 8.3811 249.648 8.45776 249.941 8.6111C250.241 8.75776 250.475 8.96443 250.641 9.2311C250.808 9.4911 250.891 9.79443 250.891 10.1411V13.8111H250.291V12.7011L250.361 12.7511C250.275 12.9644 250.131 13.1611 249.931 13.3411C249.731 13.5144 249.495 13.6578 249.221 13.7711C248.955 13.8778 248.658 13.9311 248.331 13.9311ZM254.934 13.9311C254.44 13.9311 253.994 13.8111 253.594 13.5711C253.2 13.3244 252.89 12.9911 252.664 12.5711C252.437 12.1511 252.324 11.6778 252.324 11.1511C252.324 10.6244 252.437 10.1511 252.664 9.7311C252.89 9.3111 253.2 8.9811 253.594 8.7411C253.994 8.5011 254.44 8.3811 254.934 8.3811C255.42 8.3811 255.854 8.49776 256.234 8.7311C256.614 8.95776 256.9 9.26443 257.094 9.6511L256.994 9.8411V6.2411H257.594V13.8111H256.994V12.4611L257.094 12.6011C256.907 13.0144 256.62 13.3411 256.234 13.5811C255.854 13.8144 255.42 13.9311 254.934 13.9311ZM254.954 13.3311C255.34 13.3311 255.684 13.2378 255.984 13.0511C256.29 12.8578 256.534 12.5978 256.714 12.2711C256.894 11.9378 256.984 11.5644 256.984 11.1511C256.984 10.7378 256.894 10.3678 256.714 10.0411C256.534 9.71443 256.29 9.45776 255.984 9.2711C255.684 9.07776 255.34 8.9811 254.954 8.9811C254.574 8.9811 254.234 9.07776 253.934 9.2711C253.634 9.45776 253.397 9.71443 253.224 10.0411C253.05 10.3678 252.964 10.7378 252.964 11.1511C252.964 11.5644 253.05 11.9378 253.224 12.2711C253.397 12.5978 253.634 12.8578 253.934 13.0511C254.234 13.2378 254.574 13.3311 254.954 13.3311ZM261.683 13.9311C261.183 13.9311 260.733 13.8111 260.333 13.5711C259.933 13.3244 259.616 12.9911 259.383 12.5711C259.149 12.1444 259.033 11.6678 259.033 11.1411C259.033 10.6144 259.146 10.1444 259.373 9.7311C259.599 9.3111 259.906 8.9811 260.293 8.7411C260.679 8.5011 261.113 8.3811 261.593 8.3811C261.959 8.3811 262.289 8.44776 262.583 8.5811C262.883 8.71443 263.139 8.9011 263.353 9.1411C263.573 9.37443 263.739 9.64443 263.853 9.9511C263.973 10.2511 264.033 10.5678 264.033 10.9011C264.033 10.9678 264.029 11.0378 264.023 11.1111C264.016 11.1844 264.006 11.2611 263.993 11.3411H259.383V10.7911H263.653L263.383 11.0011C263.423 10.6144 263.366 10.2678 263.213 9.9611C263.059 9.64776 262.839 9.4011 262.553 9.2211C262.273 9.03443 261.953 8.9411 261.593 8.9411C261.233 8.9411 260.903 9.03776 260.603 9.2311C260.303 9.41776 260.066 9.67776 259.893 10.0111C259.719 10.3378 259.639 10.7178 259.653 11.1511C259.639 11.5844 259.723 11.9678 259.903 12.3011C260.083 12.6344 260.329 12.8978 260.643 13.0911C260.956 13.2778 261.303 13.3711 261.683 13.3711C262.069 13.3711 262.406 13.2811 262.693 13.1011C262.979 12.9144 263.213 12.6678 263.393 12.3611L263.903 12.6311C263.783 12.8778 263.613 13.1011 263.393 13.3011C263.173 13.4944 262.916 13.6478 262.623 13.7611C262.336 13.8744 262.023 13.9311 261.683 13.9311ZM269.774 13.9311C269.287 13.9311 268.851 13.8144 268.464 13.5811C268.084 13.3411 267.801 13.0144 267.614 12.6011L267.714 12.4611V13.8111H267.114V6.2411H267.714V9.8411L267.614 9.6511C267.814 9.26443 268.101 8.95776 268.474 8.7311C268.854 8.49776 269.287 8.3811 269.774 8.3811C270.274 8.3811 270.721 8.5011 271.114 8.7411C271.507 8.9811 271.817 9.3111 272.044 9.7311C272.271 10.1511 272.384 10.6244 272.384 11.1511C272.384 11.6778 272.271 12.1511 272.044 12.5711C271.817 12.9911 271.507 13.3244 271.114 13.5711C270.721 13.8111 270.274 13.9311 269.774 13.9311ZM269.754 13.3311C270.134 13.3311 270.474 13.2378 270.774 13.0511C271.074 12.8578 271.311 12.5978 271.484 12.2711C271.657 11.9378 271.744 11.5644 271.744 11.1511C271.744 10.7378 271.657 10.3678 271.484 10.0411C271.311 9.71443 271.074 9.45776 270.774 9.2711C270.474 9.07776 270.134 8.9811 269.754 8.9811C269.374 8.9811 269.031 9.07776 268.724 9.2711C268.417 9.45776 268.174 9.71443 267.994 10.0411C267.814 10.3678 267.724 10.7378 267.724 11.1511C267.724 11.5644 267.814 11.9378 267.994 12.2711C268.174 12.5978 268.417 12.8578 268.724 13.0511C269.031 13.2378 269.374 13.3311 269.754 13.3311ZM273.745 16.0111C273.652 16.0111 273.549 16.0011 273.435 15.9811C273.329 15.9678 273.225 15.9444 273.125 15.9111V15.3511C273.205 15.3711 273.295 15.3878 273.395 15.4011C273.502 15.4144 273.599 15.4211 273.685 15.4211C274.012 15.4144 274.269 15.3344 274.455 15.1811C274.642 15.0278 274.812 14.7744 274.965 14.4211L275.345 13.5311V14.0911L273.095 8.5011H273.755L275.685 13.3211H275.445L277.385 8.5011H278.055L275.575 14.5511C275.482 14.7711 275.359 14.9944 275.205 15.2211C275.052 15.4478 274.855 15.6344 274.615 15.7811C274.382 15.9344 274.092 16.0111 273.745 16.0111ZM279.257 13.8111V12.8111H279.937V13.8111H279.257ZM279.257 9.5011V8.5011H279.937V9.5011H279.257Z" fill="#2E2E2E"/>
<path d="M191 30V4" stroke="#DBDBDB" stroke-width="0.5"/>
<path d="M27.4243 4H1.42432C0.872032 4 0.424316 4.44772 0.424316 5V31C0.424316 31.5523 0.872032 32 1.42432 32H27.4243C27.9766 32 28.4243 31.5523 28.4243 31V5C28.4243 4.44772 27.9766 4 27.4243 4Z" fill="url(#paint0_linear_5_2)"/>
<path d="M35.4263 27V7.62999H37.8963L48.7643 22.632L47.5943 22.814V7.62999H50.6363V27H48.1663L37.3763 11.894L38.4943 11.686V27H35.4263ZM57.273 27.312C56.3197 27.312 55.479 27.1473 54.751 26.818C54.0404 26.4713 53.4857 26.0033 53.087 25.414C52.6884 24.8073 52.489 24.0967 52.489 23.282C52.489 22.5193 52.6537 21.8347 52.983 21.228C53.3297 20.6213 53.8584 20.11 54.569 19.694C55.2797 19.278 56.1724 18.9833 57.247 18.81L62.135 18.004V20.318L57.819 21.072C57.039 21.2107 56.467 21.462 56.103 21.826C55.739 22.1727 55.557 22.6233 55.557 23.178C55.557 23.7153 55.7564 24.1573 56.155 24.504C56.571 24.8333 57.0997 24.998 57.741 24.998C58.5384 24.998 59.2317 24.8247 59.821 24.478C60.4277 24.1313 60.8957 23.672 61.225 23.1C61.5544 22.5107 61.719 21.8607 61.719 21.15V17.536C61.719 16.8427 61.459 16.2793 60.939 15.846C60.4364 15.3953 59.7604 15.17 58.911 15.17C58.131 15.17 57.4464 15.378 56.857 15.794C56.285 16.1927 55.8604 16.7127 55.583 17.354L53.139 16.132C53.399 15.4387 53.8237 14.832 54.413 14.312C55.0024 13.7747 55.687 13.3587 56.467 13.064C57.2644 12.7693 58.105 12.622 58.989 12.622C60.0984 12.622 61.0777 12.83 61.927 13.246C62.7937 13.662 63.461 14.2427 63.929 14.988C64.4144 15.716 64.657 16.5653 64.657 17.536V27H61.849V24.452L62.447 24.53C62.1177 25.102 61.693 25.596 61.173 26.012C60.6704 26.428 60.0897 26.7487 59.431 26.974C58.7897 27.1993 58.0704 27.312 57.273 27.312ZM66.7923 32.2V12.934H69.6003V15.846L69.2623 15.17C69.7823 14.3727 70.4756 13.7487 71.3423 13.298C72.2089 12.8473 73.1969 12.622 74.3063 12.622C75.6409 12.622 76.8369 12.9427 77.8943 13.584C78.9689 14.2253 79.8096 15.1007 80.4163 16.21C81.0403 17.3193 81.3523 18.5673 81.3523 19.954C81.3523 21.3407 81.0403 22.5887 80.4163 23.698C79.8096 24.8073 78.9776 25.6913 77.9203 26.35C76.8629 26.9913 75.6583 27.312 74.3063 27.312C73.2143 27.312 72.2176 27.0867 71.3163 26.636C70.4323 26.1853 69.7476 25.5353 69.2623 24.686L69.7303 24.14V32.2H66.7923ZM74.0203 24.582C74.8523 24.582 75.5889 24.3827 76.2303 23.984C76.8716 23.5853 77.3743 23.0393 77.7383 22.346C78.1196 21.6353 78.3103 20.838 78.3103 19.954C78.3103 19.07 78.1196 18.2813 77.7383 17.588C77.3743 16.8947 76.8716 16.3487 76.2303 15.95C75.5889 15.5513 74.8523 15.352 74.0203 15.352C73.2056 15.352 72.4689 15.5513 71.8103 15.95C71.1689 16.3487 70.6576 16.8947 70.2763 17.588C69.9123 18.2813 69.7303 19.07 69.7303 19.954C69.7303 20.838 69.9123 21.6353 70.2763 22.346C70.6576 23.0393 71.1689 23.5853 71.8103 23.984C72.4689 24.3827 73.2056 24.582 74.0203 24.582ZM82.9102 27V7.31799H85.8482V20.5L84.7042 20.214L91.7502 12.934H95.4162L90.1122 18.576L95.6502 27H92.2702L87.3302 19.538L89.0722 19.304L84.9122 23.724L85.8482 21.774V27H82.9102ZM96.3622 27V12.934H99.3002V27H96.3622ZM96.3622 11.01V7.62999H99.3002V11.01H96.3622ZM101.435 27V12.934H104.243V15.69L103.905 15.326C104.252 14.442 104.807 13.7747 105.569 13.324C106.332 12.856 107.216 12.622 108.221 12.622C109.261 12.622 110.18 12.8473 110.977 13.298C111.775 13.7487 112.399 14.3727 112.849 15.17C113.3 15.9673 113.525 16.886 113.525 17.926V27H110.613V18.706C110.613 17.9953 110.483 17.3973 110.223 16.912C109.963 16.4093 109.591 16.028 109.105 15.768C108.637 15.4907 108.1 15.352 107.493 15.352C106.887 15.352 106.341 15.4907 105.855 15.768C105.387 16.028 105.023 16.4093 104.763 16.912C104.503 17.4147 104.373 18.0127 104.373 18.706V27H101.435ZM120.57 27.312C119.131 27.312 117.866 26.9567 116.774 26.246C115.699 25.5353 114.945 24.582 114.512 23.386L116.774 22.32C117.155 23.1173 117.675 23.75 118.334 24.218C119.01 24.686 119.755 24.92 120.57 24.92C121.263 24.92 121.826 24.764 122.26 24.452C122.693 24.14 122.91 23.7153 122.91 23.178C122.91 22.8313 122.814 22.554 122.624 22.346C122.433 22.1207 122.19 21.9387 121.896 21.8C121.618 21.6613 121.332 21.5573 121.038 21.488L118.828 20.864C117.614 20.5173 116.704 19.9973 116.098 19.304C115.508 18.5933 115.214 17.77 115.214 16.834C115.214 15.9847 115.43 15.248 115.864 14.624C116.297 13.9827 116.895 13.4887 117.658 13.142C118.42 12.7953 119.278 12.622 120.232 12.622C121.514 12.622 122.658 12.9427 123.664 13.584C124.669 14.208 125.38 15.0833 125.796 16.21L123.534 17.276C123.256 16.6 122.814 16.0627 122.208 15.664C121.618 15.2653 120.951 15.066 120.206 15.066C119.564 15.066 119.053 15.222 118.672 15.534C118.29 15.8287 118.1 16.2187 118.1 16.704C118.1 17.0333 118.186 17.3107 118.36 17.536C118.533 17.744 118.758 17.9173 119.036 18.056C119.313 18.1773 119.599 18.2813 119.894 18.368L122.182 19.044C123.343 19.3733 124.236 19.8933 124.86 20.604C125.484 21.2973 125.796 22.1293 125.796 23.1C125.796 23.932 125.57 24.6687 125.12 25.31C124.686 25.934 124.08 26.428 123.3 26.792C122.52 27.1387 121.61 27.312 120.57 27.312ZM128.336 27V24.4H130.104V27H128.336ZM139.865 27.312C138.582 27.312 137.421 27 136.381 26.376C135.358 25.7347 134.552 24.868 133.963 23.776C133.374 22.684 133.079 21.4533 133.079 20.084C133.079 18.7147 133.374 17.484 133.963 16.392C134.552 15.3 135.358 14.442 136.381 13.818C137.421 13.194 138.582 12.882 139.865 12.882C141.13 12.882 142.257 13.1853 143.245 13.792C144.233 14.3813 144.978 15.1787 145.481 16.184L145.221 16.678V7.31799H146.781V27H145.221V23.49L145.481 23.854C144.996 24.9287 144.25 25.778 143.245 26.402C142.257 27.0087 141.13 27.312 139.865 27.312ZM139.917 25.752C140.922 25.752 141.815 25.5093 142.595 25.024C143.392 24.5213 144.025 23.8453 144.493 22.996C144.961 22.1293 145.195 21.1587 145.195 20.084C145.195 19.0093 144.961 18.0473 144.493 17.198C144.025 16.3487 143.392 15.6813 142.595 15.196C141.815 14.6933 140.922 14.442 139.917 14.442C138.929 14.442 138.045 14.6933 137.265 15.196C136.485 15.6813 135.87 16.3487 135.419 17.198C134.968 18.0473 134.743 19.0093 134.743 20.084C134.743 21.1587 134.968 22.1293 135.419 22.996C135.87 23.8453 136.485 24.5213 137.265 25.024C138.045 25.5093 138.929 25.752 139.917 25.752ZM156.112 27.312C154.812 27.312 153.642 27 152.602 26.376C151.562 25.7347 150.739 24.868 150.132 23.776C149.526 22.6667 149.222 21.4273 149.222 20.058C149.222 18.6887 149.517 17.4667 150.106 16.392C150.696 15.3 151.493 14.442 152.498 13.818C153.504 13.194 154.63 12.882 155.878 12.882C156.832 12.882 157.69 13.0553 158.452 13.402C159.232 13.7487 159.9 14.234 160.454 14.858C161.026 15.4647 161.46 16.1667 161.754 16.964C162.066 17.744 162.222 18.5673 162.222 19.434C162.222 19.6073 162.214 19.7893 162.196 19.98C162.179 20.1707 162.153 20.37 162.118 20.578H150.132V19.148H161.234L160.532 19.694C160.636 18.6887 160.489 17.7873 160.09 16.99C159.692 16.1753 159.12 15.534 158.374 15.066C157.646 14.5807 156.814 14.338 155.878 14.338C154.942 14.338 154.084 14.5893 153.304 15.092C152.524 15.5773 151.909 16.2533 151.458 17.12C151.008 17.9693 150.8 18.9573 150.834 20.084C150.8 21.2107 151.016 22.2073 151.484 23.074C151.952 23.9407 152.594 24.6253 153.408 25.128C154.223 25.6133 155.124 25.856 156.112 25.856C157.118 25.856 157.993 25.622 158.738 25.154C159.484 24.6687 160.09 24.0273 160.558 23.23L161.884 23.932C161.572 24.5733 161.13 25.154 160.558 25.674C159.986 26.1767 159.319 26.5753 158.556 26.87C157.811 27.1647 156.996 27.312 156.112 27.312ZM168.133 27L162.673 13.194H164.415L169.251 25.622H168.653L173.489 13.194H175.283L169.745 27H168.133Z" fill="#2E2E2E"/>
<mask id="mask0_5_2" style="mask-type:luminance" maskUnits="userSpaceOnUse" x="4" y="8" width="21" height="20">
<path d="M24.3046 9.97633L6.40063 8.11963L4.54393 26.0236L22.4479 27.8803L24.3046 9.97633Z" fill="white"/>
</mask>
<g mask="url(#mask0_5_2)">
<path d="M17.7676 22.1168L21.8844 18.7736L18.5412 14.6568M11.0812 13.8831L6.96442 17.2263L10.3076 21.3431M16.6126 11.4407L12.2361 24.5592" stroke="black" stroke-width="1.5" stroke-linecap="round" stroke-linejoin="round"/>
</g>
<path d="M227.095 8.36759C225.231 5.14917 221.103 4.04653 217.876 5.90443C215.799 7.09984 214.601 9.21357 214.507 11.4377L221.251 11.4462L221.25 12.0229H214.506C214.55 13.074 214.841 14.1215 215.405 15.0958C217.269 18.3142 221.396 19.4169 224.624 17.5586C227.853 15.7007 228.958 11.586 227.095 8.36759Z" fill="#EF2CC1"/>
<path d="M201.905 8.36551C200.042 11.5839 201.148 15.699 204.375 17.5573C206.452 18.7527 208.887 18.7302 210.866 17.6999L207.502 11.872L208.003 11.5843L211.375 17.4073C212.266 16.8441 213.031 16.0689 213.595 15.0946C215.458 11.8761 214.352 7.76106 211.125 5.90276C207.896 4.04445 203.769 5.14709 201.905 8.36551Z" fill="#CAAEF5"/>
<path d="M214.498 30.1174C218.226 30.1174 221.247 27.105 221.247 23.3888C221.247 20.998 220.01 18.9067 218.126 17.7129L214.746 23.5322L214.245 23.2433L217.617 17.4203C216.682 16.9323 215.627 16.6602 214.498 16.6602C210.771 16.6602 207.749 19.6726 207.749 23.3888C207.749 27.105 210.771 30.1174 214.498 30.1174Z" fill="#FC4C02"/>
<path d="M238 21.6021H238.998V18.1488H240.374V21.599H241.945V22.8089H240.374V29.2854H238.998V22.812H238V21.6021Z" fill="black"/>
<path d="M245.747 21.4039C247.941 21.4039 249.744 23.2204 249.744 25.4452C249.744 27.67 247.944 29.4865 245.747 29.4865C243.55 29.4865 241.749 27.67 241.749 25.4452C241.749 23.2204 243.55 21.4039 245.747 21.4039ZM245.747 28.2085C247.237 28.2085 248.399 27.0295 248.399 25.4452C248.399 23.8608 247.237 22.6819 245.747 22.6819C244.256 22.6819 243.094 23.8608 243.094 25.4452C243.094 27.0295 244.256 28.2085 245.747 28.2085Z" fill="black"/>
<path d="M254.243 33.5742C252.344 33.5742 250.49 32.2498 250.49 30.0899H251.832C251.947 31.5474 252.979 32.3148 254.24 32.3148C255.696 32.3148 256.812 31.2998 256.812 29.5979V27.961C256.288 28.911 255.142 29.4834 254.11 29.4834C251.916 29.4834 250.243 27.6856 250.243 25.4421C250.243 23.1988 251.913 21.4009 254.11 21.4009C255.142 21.4009 256.288 21.9734 256.812 22.9234V21.5989H258.188V29.5979C258.188 31.9032 256.418 33.5742 254.24 33.5742H254.243ZM254.262 28.2085C255.752 28.2085 256.914 27.0296 256.914 25.4452C256.914 23.8609 255.752 22.682 254.262 22.682C252.771 22.682 251.609 23.8609 251.609 25.4452C251.609 27.0296 252.771 28.2085 254.262 28.2085Z" fill="black"/>
<path d="M265.628 26.6211L266.741 27.2431C265.972 28.682 264.661 29.4834 263.152 29.4834C260.989 29.4834 259.22 27.667 259.22 25.4421C259.22 23.2173 260.989 21.4009 263.152 21.4009C265.315 21.4009 266.905 22.9698 266.905 25.7207H260.549C260.68 27.1936 261.811 28.2085 263.155 28.2085C264.5 28.2085 265.089 27.6361 265.628 26.6211ZM260.63 24.6252H265.445C265.281 23.5298 264.463 22.6448 263.152 22.6448C261.941 22.6448 260.958 23.4463 260.63 24.6252Z" fill="black"/>
<path d="M267.054 21.6021H268.051V18.1488H269.427V21.599H270.998V22.8089H269.427V29.2854H268.051V22.812H267.054V21.6021Z" fill="black"/>
<path d="M274.927 22.6325C273.716 22.6325 272.863 23.564 272.863 25.0863V29.2917H271.488V18.1488H272.863V22.7935C273.387 21.958 274.239 21.4041 275.386 21.4041C277.155 21.4041 278.106 22.6635 278.106 24.1519V29.2885H276.731V24.4953C276.731 23.3164 276.058 22.6294 274.93 22.6294L274.927 22.6325Z" fill="black"/>
<path d="M285.497 26.6211L286.609 27.2431C285.841 28.682 284.53 29.4834 283.021 29.4834C280.858 29.4834 279.089 27.667 279.089 25.4421C279.089 23.2173 280.858 21.4009 283.021 21.4009C285.184 21.4009 286.774 22.9698 286.774 25.7207H280.418C280.548 27.1936 281.679 28.2085 283.024 28.2085C284.369 28.2085 284.958 27.6361 285.497 26.6211ZM280.499 24.6252H285.314C285.15 23.5298 284.332 22.6448 283.021 22.6448C281.809 22.6448 280.827 23.4463 280.499 24.6252Z" fill="black"/>
<path d="M291.992 23.1052C291.728 22.8762 291.338 22.7617 290.944 22.7617C289.798 22.7617 289.144 23.7581 289.144 25.1011V29.2878H287.768V21.6013H289.144V22.9103C289.522 22.0748 290.275 21.4373 291.273 21.4373C291.766 21.4373 292.206 21.6013 292.484 21.8149L291.992 23.1083V23.1052Z" fill="black"/>
<path d="M301.839 21.6019V29.2914H300.463V27.967C299.94 28.9171 298.794 29.4895 297.761 29.4895C295.568 29.4895 293.895 27.6916 293.895 25.4482C293.895 23.2048 295.564 21.407 297.761 21.407C298.794 21.407 299.94 21.9794 300.463 22.9294V21.605H301.839V21.6019ZM297.907 28.2084C299.398 28.2084 300.56 27.0295 300.56 25.4452C300.56 23.8608 299.398 22.6818 297.907 22.6818C296.416 22.6818 295.255 23.8608 295.255 25.4452C295.255 27.0295 296.416 28.2084 297.907 28.2084Z" fill="black"/>
<path d="M304.771 21.6013V29.2908H303.395V21.6013H304.771Z" fill="black"/>
<path d="M303.165 18.9159C303.165 18.4239 303.59 18 304.083 18C304.576 18 305 18.427 305 18.9159C305 19.4048 304.591 19.8319 304.083 19.8319C303.574 19.8319 303.165 19.4234 303.165 18.9159Z" fill="black"/>
<path d="M291.27 28.4719C291.27 27.9799 291.694 27.556 292.187 27.556C292.68 27.556 293.104 27.983 293.104 28.4719C293.104 28.9608 292.695 29.3878 292.187 29.3878C291.679 29.3878 291.27 28.9794 291.27 28.4719Z" fill="#FC4C02"/>
</g>
<defs>
<linearGradient id="paint0_linear_5_2" x1="14.4243" y1="4" x2="14.4243" y2="32" gradientUnits="userSpaceOnUse">
<stop stop-color="#F3F3F3"/>
<stop offset="1" stop-color="#F2EEEE"/>
</linearGradient>
<clipPath id="clip0_5_2">
<rect width="309" height="33" fill="white"/>
</clipPath>
</defs>
</svg>
