<svg width="177" height="33" viewBox="0 0 177 33" fill="none" xmlns="http://www.w3.org/2000/svg">
<rect x="0.424316" y="4" width="28" height="28" rx="1" fill="url(#paint0_linear_148_119)"/>
<path d="M35.4263 27V7.63H37.8963L48.7643 22.632L47.5943 22.814V7.63H50.6363V27H48.1663L37.3763 11.894L38.4943 11.686V27H35.4263ZM57.273 27.312C56.3197 27.312 55.479 27.1473 54.751 26.818C54.0404 26.4713 53.4857 26.0033 53.087 25.414C52.6884 24.8073 52.489 24.0967 52.489 23.282C52.489 22.5193 52.6537 21.8347 52.983 21.228C53.3297 20.6213 53.8584 20.11 54.569 19.694C55.2797 19.278 56.1724 18.9833 57.247 18.81L62.135 18.004V20.318L57.819 21.072C57.039 21.2107 56.467 21.462 56.103 21.826C55.739 22.1727 55.557 22.6233 55.557 23.178C55.557 23.7153 55.7564 24.1573 56.155 24.504C56.571 24.8333 57.0997 24.998 57.741 24.998C58.5384 24.998 59.2317 24.8247 59.821 24.478C60.4277 24.1313 60.8957 23.672 61.225 23.1C61.5544 22.5107 61.719 21.8607 61.719 21.15V17.536C61.719 16.8427 61.459 16.2793 60.939 15.846C60.4364 15.3953 59.7604 15.17 58.911 15.17C58.131 15.17 57.4464 15.378 56.857 15.794C56.285 16.1927 55.8604 16.7127 55.583 17.354L53.139 16.132C53.399 15.4387 53.8237 14.832 54.413 14.312C55.0024 13.7747 55.687 13.3587 56.467 13.064C57.2644 12.7693 58.105 12.622 58.989 12.622C60.0984 12.622 61.0777 12.83 61.927 13.246C62.7937 13.662 63.461 14.2427 63.929 14.988C64.4144 15.716 64.657 16.5653 64.657 17.536V27H61.849V24.452L62.447 24.53C62.1177 25.102 61.693 25.596 61.173 26.012C60.6704 26.428 60.0897 26.7487 59.431 26.974C58.7897 27.1993 58.0704 27.312 57.273 27.312ZM66.7923 32.2V12.934H69.6003V15.846L69.2623 15.17C69.7823 14.3727 70.4756 13.7487 71.3423 13.298C72.2089 12.8473 73.1969 12.622 74.3063 12.622C75.6409 12.622 76.8369 12.9427 77.8943 13.584C78.9689 14.2253 79.8096 15.1007 80.4163 16.21C81.0403 17.3193 81.3523 18.5673 81.3523 19.954C81.3523 21.3407 81.0403 22.5887 80.4163 23.698C79.8096 24.8073 78.9776 25.6913 77.9203 26.35C76.8629 26.9913 75.6583 27.312 74.3063 27.312C73.2143 27.312 72.2176 27.0867 71.3163 26.636C70.4323 26.1853 69.7476 25.5353 69.2623 24.686L69.7303 24.14V32.2H66.7923ZM74.0203 24.582C74.8523 24.582 75.5889 24.3827 76.2303 23.984C76.8716 23.5853 77.3743 23.0393 77.7383 22.346C78.1196 21.6353 78.3103 20.838 78.3103 19.954C78.3103 19.07 78.1196 18.2813 77.7383 17.588C77.3743 16.8947 76.8716 16.3487 76.2303 15.95C75.5889 15.5513 74.8523 15.352 74.0203 15.352C73.2056 15.352 72.4689 15.5513 71.8103 15.95C71.1689 16.3487 70.6576 16.8947 70.2763 17.588C69.9123 18.2813 69.7303 19.07 69.7303 19.954C69.7303 20.838 69.9123 21.6353 70.2763 22.346C70.6576 23.0393 71.1689 23.5853 71.8103 23.984C72.4689 24.3827 73.2056 24.582 74.0203 24.582ZM82.9102 27V7.318H85.8482V20.5L84.7042 20.214L91.7502 12.934H95.4162L90.1122 18.576L95.6502 27H92.2702L87.3302 19.538L89.0722 19.304L84.9122 23.724L85.8482 21.774V27H82.9102ZM96.3622 27V12.934H99.3002V27H96.3622ZM96.3622 11.01V7.63H99.3002V11.01H96.3622ZM101.435 27V12.934H104.243V15.69L103.905 15.326C104.252 14.442 104.807 13.7747 105.569 13.324C106.332 12.856 107.216 12.622 108.221 12.622C109.261 12.622 110.18 12.8473 110.977 13.298C111.775 13.7487 112.399 14.3727 112.849 15.17C113.3 15.9673 113.525 16.886 113.525 17.926V27H110.613V18.706C110.613 17.9953 110.483 17.3973 110.223 16.912C109.963 16.4093 109.591 16.028 109.105 15.768C108.637 15.4907 108.1 15.352 107.493 15.352C106.887 15.352 106.341 15.4907 105.855 15.768C105.387 16.028 105.023 16.4093 104.763 16.912C104.503 17.4147 104.373 18.0127 104.373 18.706V27H101.435ZM120.57 27.312C119.131 27.312 117.866 26.9567 116.774 26.246C115.699 25.5353 114.945 24.582 114.512 23.386L116.774 22.32C117.155 23.1173 117.675 23.75 118.334 24.218C119.01 24.686 119.755 24.92 120.57 24.92C121.263 24.92 121.826 24.764 122.26 24.452C122.693 24.14 122.91 23.7153 122.91 23.178C122.91 22.8313 122.814 22.554 122.624 22.346C122.433 22.1207 122.19 21.9387 121.896 21.8C121.618 21.6613 121.332 21.5573 121.038 21.488L118.828 20.864C117.614 20.5173 116.704 19.9973 116.098 19.304C115.508 18.5933 115.214 17.77 115.214 16.834C115.214 15.9847 115.43 15.248 115.864 14.624C116.297 13.9827 116.895 13.4887 117.658 13.142C118.42 12.7953 119.278 12.622 120.232 12.622C121.514 12.622 122.658 12.9427 123.664 13.584C124.669 14.208 125.38 15.0833 125.796 16.21L123.534 17.276C123.256 16.6 122.814 16.0627 122.208 15.664C121.618 15.2653 120.951 15.066 120.206 15.066C119.564 15.066 119.053 15.222 118.672 15.534C118.29 15.8287 118.1 16.2187 118.1 16.704C118.1 17.0333 118.186 17.3107 118.36 17.536C118.533 17.744 118.758 17.9173 119.036 18.056C119.313 18.1773 119.599 18.2813 119.894 18.368L122.182 19.044C123.343 19.3733 124.236 19.8933 124.86 20.604C125.484 21.2973 125.796 22.1293 125.796 23.1C125.796 23.932 125.57 24.6687 125.12 25.31C124.686 25.934 124.08 26.428 123.3 26.792C122.52 27.1387 121.61 27.312 120.57 27.312ZM128.336 27V24.4H130.104V27H128.336ZM139.865 27.312C138.582 27.312 137.421 27 136.381 26.376C135.358 25.7347 134.552 24.868 133.963 23.776C133.374 22.684 133.079 21.4533 133.079 20.084C133.079 18.7147 133.374 17.484 133.963 16.392C134.552 15.3 135.358 14.442 136.381 13.818C137.421 13.194 138.582 12.882 139.865 12.882C141.13 12.882 142.257 13.1853 143.245 13.792C144.233 14.3813 144.978 15.1787 145.481 16.184L145.221 16.678V7.318H146.781V27H145.221V23.49L145.481 23.854C144.996 24.9287 144.25 25.778 143.245 26.402C142.257 27.0087 141.13 27.312 139.865 27.312ZM139.917 25.752C140.922 25.752 141.815 25.5093 142.595 25.024C143.392 24.5213 144.025 23.8453 144.493 22.996C144.961 22.1293 145.195 21.1587 145.195 20.084C145.195 19.0093 144.961 18.0473 144.493 17.198C144.025 16.3487 143.392 15.6813 142.595 15.196C141.815 14.6933 140.922 14.442 139.917 14.442C138.929 14.442 138.045 14.6933 137.265 15.196C136.485 15.6813 135.87 16.3487 135.419 17.198C134.968 18.0473 134.743 19.0093 134.743 20.084C134.743 21.1587 134.968 22.1293 135.419 22.996C135.87 23.8453 136.485 24.5213 137.265 25.024C138.045 25.5093 138.929 25.752 139.917 25.752ZM156.112 27.312C154.812 27.312 153.642 27 152.602 26.376C151.562 25.7347 150.739 24.868 150.132 23.776C149.526 22.6667 149.222 21.4273 149.222 20.058C149.222 18.6887 149.517 17.4667 150.106 16.392C150.696 15.3 151.493 14.442 152.498 13.818C153.504 13.194 154.63 12.882 155.878 12.882C156.832 12.882 157.69 13.0553 158.452 13.402C159.232 13.7487 159.9 14.234 160.454 14.858C161.026 15.4647 161.46 16.1667 161.754 16.964C162.066 17.744 162.222 18.5673 162.222 19.434C162.222 19.6073 162.214 19.7893 162.196 19.98C162.179 20.1707 162.153 20.37 162.118 20.578H150.132V19.148H161.234L160.532 19.694C160.636 18.6887 160.489 17.7873 160.09 16.99C159.692 16.1753 159.12 15.534 158.374 15.066C157.646 14.5807 156.814 14.338 155.878 14.338C154.942 14.338 154.084 14.5893 153.304 15.092C152.524 15.5773 151.909 16.2533 151.458 17.12C151.008 17.9693 150.8 18.9573 150.834 20.084C150.8 21.2107 151.016 22.2073 151.484 23.074C151.952 23.9407 152.594 24.6253 153.408 25.128C154.223 25.6133 155.124 25.856 156.112 25.856C157.118 25.856 157.993 25.622 158.738 25.154C159.484 24.6687 160.09 24.0273 160.558 23.23L161.884 23.932C161.572 24.5733 161.13 25.154 160.558 25.674C159.986 26.1767 159.319 26.5753 158.556 26.87C157.811 27.1647 156.996 27.312 156.112 27.312ZM168.133 27L162.673 13.194H164.415L169.251 25.622H168.653L173.489 13.194H175.283L169.745 27H168.133Z" fill="#2E2E2E"/>
<g clip-path="url(#clip0_148_119)">
<path d="M17.7676 22.1168L21.8844 18.7736L18.5412 14.6568M11.0812 13.8831L6.96438 17.2263L10.3076 21.3431M16.6126 11.4407L12.2361 24.5592" stroke="black" stroke-width="1.5" stroke-linecap="round" stroke-linejoin="round"/>
</g>
<defs>
<linearGradient id="paint0_linear_148_119" x1="14.4243" y1="4" x2="14.4243" y2="32" gradientUnits="userSpaceOnUse">
<stop stop-color="#F3F3F3"/>
<stop offset="1" stop-color="#F2EEEE"/>
</linearGradient>
<clipPath id="clip0_148_119">
<rect width="18" height="18" fill="white" transform="translate(6.40063 8.11963) rotate(5.9206)"/>
</clipPath>
</defs>
</svg>
