<svg width="17" height="11" viewBox="0 0 17 11" fill="none" xmlns="http://www.w3.org/2000/svg">
<path fill-rule="evenodd" clip-rule="evenodd" d="M5.0141 1.62963C4.01483 1.62963 3.11357 2.23399 2.72924 3.16181C2.37856 4.00838 1.90526 6.10712 1.69129 7.10918C1.63204 7.3867 1.6074 7.62504 1.62641 7.83909C1.69012 8.55604 1.91104 8.89851 2.11743 9.07451C2.33411 9.25931 2.66324 9.37037 3.14409 9.37037C3.67345 9.37037 4.16546 9.0961 4.44603 8.64453L5.77832 6.50035L7.54965 3.53084L7.13659 2.8384C6.68925 2.08849 5.88356 1.62963 5.0141 1.62963ZM8.49434 1.94799C7.74827 0.738018 6.43246 0 5.0141 0C3.36079 0 1.86962 0.999941 1.23373 2.53503C0.812346 3.55231 0.30839 5.82519 0.107292 6.76704C0.0297605 7.13012 -0.0262553 7.54551 0.0127168 7.98413C0.102464 8.99417 0.449389 9.78853 1.06969 10.3175C1.6797 10.8378 2.4361 11 3.14409 11C4.23205 11 5.24327 10.4362 5.81989 9.50824L7.15612 7.35778L7.16381 7.34515L8.49434 5.11459L9.82487 7.34515L9.83256 7.35778L11.1688 9.50824C11.7454 10.4362 12.7566 11 13.8446 11C14.6407 11 15.4682 10.7716 16.0896 10.1154C16.7058 9.46448 17 8.51824 17 7.33333C17 6.5815 16.7166 5.48688 16.4538 4.61063C16.1799 3.69739 15.8844 2.88334 15.7936 2.63739C15.7724 2.58005 15.7471 2.51454 15.7164 2.44506C15.0602 0.960936 13.5953 0 11.9745 0C10.5562 0 9.24041 0.738027 8.49434 1.94799ZM9.43904 3.53085L11.2103 6.50035L12.5426 8.64453C12.8232 9.0961 13.3152 9.37037 13.8446 9.37037C14.3437 9.37037 14.6889 9.23169 14.9164 8.99148C15.149 8.74582 15.3799 8.26613 15.3799 7.33333C15.3799 6.85732 15.1736 5.98473 14.9027 5.08127C14.6429 4.21487 14.3605 3.43673 14.2749 3.20493C14.2598 3.16407 14.2476 3.13348 14.2361 3.10726C13.8395 2.21043 12.9541 1.62963 11.9745 1.62963C11.1051 1.62963 10.2994 2.08849 9.85209 2.83842L9.43904 3.53085Z" fill="#000AF9"/>
</svg>
